<?xml version="1.0" encoding="utf-8"?>
<!-- Generator: Adobe Illustrator 26.0.0, SVG Export Plug-In . SVG Version: 6.00 Build 0)  -->
<!DOCTYPE svg PUBLIC "-//W3C//DTD SVG 1.1//EN" "http://www.w3.org/Graphics/SVG/1.1/DTD/svg11.dtd" [
	<!ENTITY st0 "fill:#666666;stroke:#2D2D2E;stroke-width:2.1966;stroke-linecap:round;">
	<!ENTITY st1 "fill:#7F7F7F;stroke:#7F7F7F;stroke-width:1.0645;stroke-linecap:round;">
	<!ENTITY st2 "fill:#CCCC00;stroke:#666600;stroke-width:2.0767;stroke-linecap:round;">
	<!ENTITY st3 "fill:#999900;">
	<!ENTITY st4 "fill:#CCCC00;stroke:#666600;stroke-width:2.1558;stroke-linecap:round;">
	<!ENTITY st5 "fill:#003FFF;stroke:#001966;stroke-width:2.1966;stroke-linecap:round;">
	<!ENTITY st6 "fill:#0033CC;">
]>
<svg version="1.1" id="图层_1" xmlns="http://www.w3.org/2000/svg" xmlns:xlink="http://www.w3.org/1999/xlink" x="0px" y="0px"
	 width="100px" height="100px" viewBox="0 0 100 100" style="enable-background:new 0 0 100 100;" xml:space="preserve">
<g id="ID0.028125321958214045">
	<path id="ID0.9928363733924925" style="&st0;" d="M38.5042,48.3983l0.0033-0.9448l2.0085-1.1549l1.4978,0.6883l6.3049-4.8746
		l0.6712-2.0915l2.1241-1.3716l4.9177,6.7456l-1.9449,1.2445l-1.4677-0.1711l-7.5258,5.3363l-0.4773,1.4156l-2.0868,1.6143
		L38.5042,48.3983z"/>
	<path id="ID0.9928363733924925_00000085246911607101412540000001623852294035169195_" style="&st1;" d="M42.3579,49.1949
		l0.195-0.3424l1.2509-0.8286l0.6158-0.0575l4.1823-3.0531l0.7669-0.8938l1.3537-0.9306l1.1041,1.4336l-1.2372,0.8481L49.883,45.609
		l-4.8935,3.4698l-0.5307,0.6096l-1.3844,1.0108L42.3579,49.1949z"/>
</g>
<g id="ID0.9347816440276802">
	<path id="ID0.15973777556791902" style="&st2;" d="M62.0031,48.5392c0.7746-0.5237,1.5269-1.5136,2.4407-1.1921
		c1.1562,0.3986,1.7474,1.9115,2.4223,2.9948c0.4569,0.6831,1.1765,1.4721,1.2146,2.3028
		c-0.2307,0.8879-0.9594,1.5944-1.6942,2.0764c-0.7081,0.4658-1.641,0.6937-2.4687,0.3893
		c-0.8792-0.3231-1.5224-1.2673-2.1162-2.0526c-0.577-0.8929-1.3649-1.8676-1.3335-2.8917
		C60.4991,49.374,61.3884,48.9548,62.0031,48.5392z"/>
	<path id="ID0.9958959282375872" style="&st3;" d="M64.2684,48.2793c0.6977,0.4127,0.9896,1.3906,1.5327,2.0772
		c0.1016,0.1636,0.2554,0.2457,0.3415,0.3974c0.3102,0.5488,0.8273,1.1112,0.889,1.7594c0.0103,0.3549-0.4258,0.5605-0.7078,0.7712
		c-0.0696,0.0535,0.1073,0.0586-0.1191-0.2521c-0.9032-1.2418-1.8632-2.434-2.7476-3.7066
		c-0.2211-0.3185-0.1574-0.3112-0.1031-0.3981C63.6045,48.6221,63.915,48.0708,64.2684,48.2793z"/>
</g>
<g id="ID0.9347816440276802_00000158009305134249952780000011022212044211225525_">
	<path id="ID0.15973777556791902_00000069396322529842819680000015870086347155023284_" style="&st4;" d="M43.0575,61.6663
		c0.839-0.5693,1.6731-1.6172,2.6255-1.3231c1.2053,0.3639,1.7694,1.8959,2.4391,2.9829c0.4553,0.6842,1.1839,1.4669,1.1911,2.3195
		c-0.2791,0.9222-1.0769,1.6777-1.8723,2.2027c-0.7665,0.5071-1.761,0.7787-2.623,0.4987
		c-0.9157-0.2972-1.5575-1.2424-2.1534-2.0262c-0.5738-0.8951-1.3672-1.8661-1.2932-2.9203
		C41.4357,62.5847,42.3917,62.1182,43.0575,61.6663z"/>
	<path id="ID0.9958959282375872_00000080919879439451437130000002268951642372009380_" style="&st3;" d="M45.4606,61.3088
		c0.7205,0.3966,0.9898,1.3904,1.536,2.0749c0.1008,0.1641,0.26,0.2424,0.3449,0.395c0.3058,0.5519,0.8295,1.1095,0.8689,1.7737
		c-0.0033,0.3645-0.4722,0.5933-0.7784,0.8212c-0.0757,0.0577,0.1109,0.0559-0.1157-0.2546
		c-0.9045-1.2409-1.871-2.4284-2.7544-3.7017c-0.2208-0.3187-0.1538-0.3138-0.093-0.4053
		C44.7457,61.6878,45.0956,61.1085,45.4606,61.3088z"/>
</g>
<path id="ID0.2791830296628177" style="&st5;" d="M37.56,33.7996c2.8051-1.9891,6.0674-2.3688,9.2186-2.235
	c3.2191,0.1612,5.8835,1.3498,8.0588,3.246c4.0382,3.4943,7.412,7.8232,10.0497,12.4641c0.6596,1.16-0.4399,2.2695-1.2869,2.9321
	c-0.7784,0.6434-2.2425,1.2009-3.0022,0.513c-2.9831-2.6994-4.3634-6.841-7.1225-9.7599c-1.5721-1.6628-3.5612-3.3572-5.79-3.7035
	c-2.1785-0.3362-4.5777,0.4387-6.3961,1.7078c-1.8016,1.2721-3.1744,3.3711-3.5879,5.5735
	c-0.3863,2.0659,0.5979,4.3369,1.5173,6.1273c1.8904,3.6762,5.335,6.4928,6.9099,10.3146c0.4096,0.9954-0.7673,2.0547-1.6306,2.6372
	c-0.7117,0.6312-2.0097,1.3887-2.722,0.7184c-2.6631-2.5063-4.2725-6.0331-6.2184-9.0546c-1.1967-1.8605-2.594-3.759-3.0501-5.9156
	c-0.6247-2.476-0.8851-5.1902-0.1069-7.6054C33.3701,38.7537,34.7548,35.7887,37.56,33.7996z"/>
<path id="ID0.22537472378462553" style="&st6;" d="M38.5934,39.7485c0.1341,0.1284-1.4003,3.3342-1.4987,5.1018
	c-0.1081,1.9401,0.2606,3.9904,1.1101,5.7429c1.7929,3.6982,4.9301,6.7327,6.7624,10.4865c0.4347,0.9035-0.562,1.6816-1.0132,1.3243
	c-1.5566-1.2363-2.3948-3.2445-3.4175-4.9146c-1.5564-2.5424-3.4157-5.0451-4.3394-7.8288
	c-0.6133-1.8486-0.7367-3.9005-0.3054-5.8422C36.2455,42.2305,38.4593,39.6201,38.5934,39.7485z"/>
<path id="ID0.7393768825568259" style="&st6;" d="M50.4319,33.3737c3.0221,1.3322,5.5481,3.7041,7.8246,6.0981
	c2.2498,2.3658,3.9756,5.1301,5.5457,7.916c0.4147,0.7292,0.0507,1.6039-0.2794,1.4098c-0.8136-0.4827-1.2559-1.7996-1.9507-2.656
	c-2.4305-2.993-4.6685-6.1265-7.5215-8.8038c-1.7589-1.6489-3.9349-2.9536-6.1151-3.877c-1.417-0.5933-4.9728-0.6275-4.5749-0.6606
	C43.7698,32.7659,48.2612,32.4181,50.4319,33.3737z"/>
</svg>
