<?xml version="1.0" encoding="utf-8"?>
<!-- Generator: Adobe Illustrator 26.0.0, SVG Export Plug-In . SVG Version: 6.00 Build 0)  -->
<!DOCTYPE svg PUBLIC "-//W3C//DTD SVG 1.1//EN" "http://www.w3.org/Graphics/SVG/1.1/DTD/svg11.dtd" [
	<!ENTITY st0 "fill:#CCFFFF;">
	<!ENTITY st1 "fill:#00FFFF;">
	<!ENTITY st2 "fill:#666666;stroke:#2D2D2E;stroke-width:2.1966;stroke-linecap:round;">
	<!ENTITY st3 "fill:#7F7F7F;stroke:#7F7F7F;stroke-width:1.0645;stroke-linecap:round;">
	<!ENTITY st4 "fill:#CCCC00;stroke:#666600;stroke-width:2.0767;stroke-linecap:round;">
	<!ENTITY st5 "fill:#999900;">
	<!ENTITY st6 "fill:#CCCC00;stroke:#666600;stroke-width:2.1558;stroke-linecap:round;">
	<!ENTITY st7 "fill:#003FFF;stroke:#001966;stroke-width:2.1966;stroke-linecap:round;">
	<!ENTITY st8 "fill:#0033CC;">
]>
<svg version="1.1" id="图层_1" xmlns="http://www.w3.org/2000/svg" xmlns:xlink="http://www.w3.org/1999/xlink" x="0px" y="0px"
	 width="100px" height="100px" viewBox="0 0 100 100" style="enable-background:new 0 0 100 100;" xml:space="preserve">
<g id="ID0.2593344016931951">
	<path id="ID0.7937941406853497" style="&st0;" d="M70.5998,63.376c0.5834,0.816,0.6399-3.5738,1.4336-2.8764
		c2.7362,2.4391,6.1365,10.0732,6.1983,10.1035c0.0154-0.1939-3.1061-8.3036-5.5788-11.4146
		c-0.6275-0.7879-1.5821,0.4861-2.1657,1.348c-0.6475,0.9564-0.8076,4.6259-1.2575,3.7056
		c-1.2498-2.5613-2.3455-10.5227-2.3308-10.5741C67.0557,53.6118,68.7108,60.7296,70.5998,63.376z"/>
	<path id="ID0.7937941406853497_00000022522918482846774030000001430201036031905695_" style="&st0;" d="M63.4155,59.0421
		c-0.1391,1.023-1.0225,2.06-0.8185,3.1078c0.5124,2.5626,3.4692,7.4194,3.2708,7.421c-0.3297,0.0004-4.4868-5.1127-5.7456-7.4074
		c-0.3492-0.6463,1.3585,1.4672,2.135,1.3961c0.7766-0.071,1.4257-0.7392,1.8462-1.7604c0.4205-1.0222,0.6133-2.3975,0.4773-3.8839
		c-0.136-1.4864-0.9505-3.9882-1.1742-3.7328C63.1686,54.4634,63.6322,57.4451,63.4155,59.0421z"/>
	<path id="ID0.8525103782303631" style="&st0;" d="M67.6681,54.0939c0.7454,0.4325,2.9878-0.5926,4.4721-0.4151
		c0.7336,0.0905,1.419,0.4596,1.5338,1.0647c0.2722,1.6376-0.7009,5.4812-0.4894,5.5824c0.2162,0.1083,0.6273-3.8931,1.9364-5.1914
		c0.8796-0.7107,3.6329,0.5259,3.4552,0.2397c-0.1849-0.2993-2.897-0.8786-4.2416-1.5484c-0.4382-0.318-0.3607-1.2234-0.95-1.3279
		c-1.2944-0.2404-2.8972-0.0857-3.933,0.203C68.4169,52.9897,67.2643,53.8408,67.6681,54.0939z"/>
	<path id="ID0.2710415353067219" style="&st1;" d="M69.7431,53.6397c-0.1737,0.5809-0.2781,1.1652-0.6777,1.6249
		c-0.6825,0.7856-1.6316,1.4734-2.647,1.877c-0.6417,0.3742-1.3615,0.4025-2.1283,0.3646
		c-1.0402-0.0555-2.7906-0.8096-3.0176-0.5531c-0.2247,0.2576,1.1071,1.3302,1.927,1.5957c0.9282,0.2991,2.0541,0.2332,3.071,0.0561
		c0.7742-0.1356,1.4872-0.3935,2.239-0.9265c0.7518-0.5331,1.2287-1.1217,1.6152-1.8064c0.4432-0.7841,0.8663-1.7358,0.8996-2.6696
		c0.0394-0.9811-0.4652-2.9876-0.6882-2.8779C70.1099,50.4363,70.0646,52.5446,69.7431,53.6397z"/>
	<path id="ID0.2710415353067219_00000168814741496618555260000017595916923015538845_" style="&st1;" d="M72.5136,55.1417
		c-0.2388,0.7987-0.3824,1.6022-0.9318,2.2343c-0.9385,1.0801-2.2436,2.0259-3.6397,2.5808
		c-0.8823,0.5145-1.872,0.5535-2.9264,0.5014c-1.4302-0.0763-3.8371-1.1133-4.1492-0.7605c-0.3089,0.3542,1.5222,1.829,2.6497,2.194
		c1.2762,0.4114,2.8244,0.3207,4.2226,0.0772c1.0645-0.1865,2.0449-0.541,3.0786-1.274c1.0337-0.7329,1.6894-1.5423,2.2208-2.4837
		c0.6095-1.0782,1.1913-2.3868,1.237-3.6707c0.0542-1.3491-0.6397-4.108-0.9463-3.9572
		C73.0179,50.7371,72.9556,53.636,72.5136,55.1417z"/>
</g>
<g id="ID0.2593344016931951_00000182500986822082364520000016121381230537231550_">
	<path id="ID0.7937941406853497_00000170250470271336885710000006550703187373587388_" style="&st0;" d="M54.8756,74.7355
		c0.5771,0.8206-3.5842-0.5785-3.1886,0.4013c1.3963,3.3891,7.4755,9.1237,7.4836,9.192c-0.1881-0.0496-6.8082-5.6785-8.9259-9.0413
		c-0.5359-0.8529,0.9822-1.3321,1.9887-1.5977c1.1167-0.2946,4.6325,0.7685,3.913,0.0394c-2.0036-2.0268-9.1541-5.695-9.2074-5.6981
		C46.8341,68.1605,53.0033,72.0774,54.8756,74.7355z"/>
	<path id="ID0.7937941406853497_00000044900500610875433940000001038695178975558559_" style="&st0;" d="M52.9896,66.4823
		c1.0114,0.2072,2.2823-0.2833,3.2036,0.2559c2.2487,1.3314,5.8537,5.7286,5.9208,5.5419c0.1095-0.311-3.3402-5.9257-5.0891-7.8728
		c-0.4944-0.5434,0.935,1.7674,0.611,2.4767c-0.3239,0.7093-1.1693,1.1008-2.272,1.1598c-1.1038,0.0585-2.4655-0.2146-3.8232-0.8347
		c-1.3576-0.6201-3.449-2.2166-3.134-2.3432C48.7505,64.7344,51.4109,66.1585,52.9896,66.4823z"/>
	<path id="ID0.8525103782303631_00000001655813625206301090000012761588349820658855_" style="&st0;" d="M46.9226,68.7981
		c0.1616,0.8465-1.5478,2.6235-1.8713,4.0829c-0.1573,0.7222-0.0358,1.4911,0.4972,1.7996
		c1.4554,0.7988,5.4044,1.1522,5.4299,1.3853c0.0307,0.2398-3.8813-0.6962-5.5396,0.1096c-0.9617,0.595-0.7058,3.6023-0.9171,3.34
		c-0.2212-0.2736,0.1294-3.0246-0.0578-4.5151c-0.155-0.5187-1.0351-0.7451-0.9388-1.3358c0.2014-1.301,0.8777-2.7624,1.4929-3.6443
		C45.6329,69.1395,46.8174,68.3334,46.9226,68.7981z"/>
	<path id="ID0.2710415353067219_00000147194890950180763220000003715137620524820882_" style="&st1;" d="M45.8454,70.5849
		c0.6056,0.0284,1.1916,0.1232,1.7576-0.1018c0.9672-0.3842,1.9303-1.0523,2.6471-1.877c0.5654-0.4817,0.8303-1.1516,1.0482-1.8877
		c0.2919-1,0.1593-2.9013,0.4766-3.0307c0.3174-0.1268,0.8889,1.4849,0.8682,2.3465c-0.0248,0.9748-0.4596,2.0155-0.9632,2.9166
		c-0.3841,0.6857-0.8634,1.2732-1.6151,1.8063c-0.7518,0.5331-1.465,0.7884-2.239,0.9265
		c-0.8867,0.1588-1.9247,0.2432-2.8169-0.0343c-0.939-0.2875-2.6655-1.4275-2.4882-1.6017
		C42.7011,69.8712,44.7057,70.526,45.8454,70.5849z"/>
	<path id="ID0.2710415353067219_00000064351707743508989210000017151665537212367548_" style="&st1;" d="M46.3168,73.8227
		c0.8327,0.039,1.6384,0.1693,2.4167-0.14c1.3298-0.5283,2.6541-1.4469,3.6398-2.5808c0.7774-0.6624,1.1417-1.5834,1.4413-2.5957
		c0.4013-1.3749,0.219-3.9893,0.6552-4.1671c0.4365-0.1744,1.2223,2.0416,1.1938,3.2263c-0.0341,1.3405-0.6319,2.7715-1.3243,4.0104
		c-0.5282,0.9428-1.1872,1.7507-2.2209,2.4837c-1.0336,0.7329-2.0143,1.084-3.0786,1.2739
		c-1.2191,0.2184-2.6465,0.3345-3.8732-0.0472c-1.291-0.3952-3.665-1.9628-3.4213-2.2023
		C41.9934,72.8414,44.7497,73.7417,46.3168,73.8227z"/>
</g>
<g id="ID0.028125321958214045_00000161593638111093183960000002088162325612655764_">
	<path id="ID0.9928363733924925_00000130647193386656128520000018443256336602431674_" style="&st2;" d="M38.5042,48.3983
		l0.0033-0.9448l2.0085-1.1549l1.4978,0.6883l6.3049-4.8746l0.6712-2.0915l2.1241-1.3716l4.9177,6.7456l-1.9449,1.2445
		l-1.4677-0.1711l-7.5258,5.3363l-0.4773,1.4156l-2.0868,1.6143L38.5042,48.3983z"/>
	<path id="ID0.9928363733924925_00000167363496025651842630000003854104372922236575_" style="&st3;" d="M42.3579,49.1949
		l0.195-0.3424l1.2509-0.8286l0.6158-0.0575l4.1823-3.0531l0.7669-0.8938l1.3537-0.9306l1.1041,1.4336l-1.2372,0.8481L49.883,45.609
		l-4.8935,3.4698l-0.5307,0.6096l-1.3844,1.0108L42.3579,49.1949z"/>
</g>
<g id="ID0.9347816440276802_00000000931506710445177410000012649515936845086340_">
	<path id="ID0.15973777556791902_00000019642154988966400730000000198746360812604306_" style="&st4;" d="M62.0031,48.5392
		c0.7746-0.5237,1.5269-1.5136,2.4407-1.1921c1.1562,0.3986,1.7474,1.9115,2.4223,2.9948c0.4569,0.6831,1.1765,1.4721,1.2146,2.3028
		c-0.2307,0.8879-0.9594,1.5944-1.6942,2.0764c-0.7081,0.4658-1.641,0.6937-2.4687,0.3893
		c-0.8792-0.3231-1.5224-1.2673-2.1162-2.0526c-0.577-0.8929-1.3649-1.8676-1.3335-2.8917
		C60.4991,49.374,61.3884,48.9548,62.0031,48.5392z"/>
	<path id="ID0.9958959282375872_00000096743300129497221290000003598130694517722511_" style="&st5;" d="M64.2684,48.2793
		c0.6977,0.4127,0.9896,1.3906,1.5327,2.0772c0.1016,0.1636,0.2554,0.2457,0.3415,0.3974c0.3102,0.5488,0.8273,1.1112,0.889,1.7594
		c0.0103,0.3549-0.4258,0.5605-0.7078,0.7712c-0.0696,0.0535,0.1073,0.0586-0.1191-0.2521
		c-0.9032-1.2418-1.8632-2.434-2.7476-3.7066c-0.2211-0.3185-0.1574-0.3112-0.1031-0.3981
		C63.6045,48.6221,63.915,48.0708,64.2684,48.2793z"/>
</g>
<g id="ID0.9347816440276802_00000023997776604121750510000008751290650335863697_">
	<path id="ID0.15973777556791902_00000007403179288463881140000006665826640623967160_" style="&st6;" d="M43.0575,61.6663
		c0.839-0.5693,1.6731-1.6172,2.6255-1.3231c1.2053,0.3639,1.7694,1.8959,2.4391,2.9829c0.4553,0.6842,1.1839,1.4669,1.1911,2.3195
		c-0.2791,0.9222-1.0769,1.6777-1.8723,2.2027c-0.7665,0.5071-1.761,0.7787-2.623,0.4987
		c-0.9157-0.2972-1.5575-1.2424-2.1534-2.0262c-0.5738-0.8951-1.3672-1.8661-1.2932-2.9203
		C41.4357,62.5847,42.3917,62.1182,43.0575,61.6663z"/>
	<path id="ID0.9958959282375872_00000135649983678439765460000002533040644551871674_" style="&st5;" d="M45.4606,61.3088
		c0.7205,0.3966,0.9898,1.3904,1.536,2.0749c0.1008,0.1641,0.26,0.2424,0.3449,0.395c0.3058,0.5519,0.8295,1.1095,0.8689,1.7737
		c-0.0033,0.3645-0.4722,0.5933-0.7784,0.8212c-0.0757,0.0577,0.1109,0.0559-0.1157-0.2546
		c-0.9045-1.2409-1.871-2.4284-2.7544-3.7017c-0.2208-0.3187-0.1538-0.3138-0.093-0.4053
		C44.7457,61.6878,45.0956,61.1085,45.4606,61.3088z"/>
</g>
<path id="ID0.2791830296628177_00000172402139636276807480000007270613893900329901_" style="&st7;" d="M37.56,33.7996
	c2.8051-1.9891,6.0674-2.3688,9.2186-2.235c3.2191,0.1612,5.8835,1.3498,8.0588,3.246c4.0382,3.4943,7.412,7.8232,10.0497,12.4641
	c0.6596,1.16-0.4399,2.2695-1.2869,2.9321c-0.7784,0.6434-2.2425,1.2009-3.0022,0.513c-2.9831-2.6994-4.3634-6.841-7.1225-9.7599
	c-1.5721-1.6628-3.5612-3.3572-5.79-3.7035c-2.1785-0.3362-4.5777,0.4387-6.3961,1.7078c-1.8016,1.2721-3.1744,3.3711-3.5879,5.5735
	c-0.3863,2.0659,0.5979,4.3369,1.5173,6.1273c1.8904,3.6762,5.335,6.4928,6.9099,10.3146c0.4096,0.9954-0.7673,2.0547-1.6306,2.6372
	c-0.7117,0.6312-2.0097,1.3887-2.722,0.7184c-2.6631-2.5063-4.2725-6.0331-6.2184-9.0546c-1.1967-1.8605-2.594-3.759-3.0501-5.9156
	c-0.6247-2.476-0.8851-5.1902-0.1069-7.6054C33.3701,38.7537,34.7548,35.7887,37.56,33.7996z"/>
<path id="ID0.22537472378462553_00000096052427464510552230000017305310462416195720_" style="&st8;" d="M38.5934,39.7485
	c0.1341,0.1284-1.4003,3.3342-1.4987,5.1018c-0.1081,1.9401,0.2606,3.9904,1.1101,5.7429
	c1.7929,3.6982,4.9301,6.7327,6.7624,10.4865c0.4347,0.9035-0.562,1.6816-1.0132,1.3243c-1.5566-1.2363-2.3948-3.2445-3.4175-4.9146
	c-1.5564-2.5424-3.4157-5.0451-4.3394-7.8288c-0.6133-1.8486-0.7367-3.9005-0.3054-5.8422
	C36.2455,42.2305,38.4593,39.6201,38.5934,39.7485z"/>
<path id="ID0.7393768825568259_00000059307247001492813840000003160676378065520788_" style="&st8;" d="M50.4319,33.3737
	c3.0221,1.3322,5.5481,3.7041,7.8246,6.0981c2.2498,2.3658,3.9756,5.1301,5.5457,7.916c0.4147,0.7292,0.0507,1.6039-0.2794,1.4098
	c-0.8136-0.4827-1.2559-1.7996-1.9507-2.656c-2.4305-2.993-4.6685-6.1265-7.5215-8.8038c-1.7589-1.6489-3.9349-2.9536-6.1151-3.877
	c-1.417-0.5933-4.9728-0.6275-4.5749-0.6606C43.7698,32.7659,48.2612,32.4181,50.4319,33.3737z"/>
</svg>
