<?xml version="1.0" encoding="utf-8"?>
<!-- Generator: Adobe Illustrator 26.0.0, SVG Export Plug-In . SVG Version: 6.00 Build 0)  -->
<!DOCTYPE svg PUBLIC "-//W3C//DTD SVG 1.1//EN" "http://www.w3.org/Graphics/SVG/1.1/DTD/svg11.dtd" [
	<!ENTITY st0 "fill:#CCCCCC;stroke:#666666;stroke-width:1.1215;stroke-linecap:round;stroke-miterlimit:10;">
	<!ENTITY st1 "fill:#E5E5E5;stroke:#666666;stroke-width:1.1215;stroke-linecap:round;stroke-miterlimit:10;">
	<!ENTITY st2 "fill:#7F7F7F;">
	<!ENTITY st3 "fill:#CC7700;stroke:#663B00;stroke-width:1.6206;stroke-linecap:round;stroke-miterlimit:10;">
	<!ENTITY st4 "fill:#FFE9CC;stroke:#663B00;stroke-width:1.6206;stroke-linecap:round;stroke-miterlimit:10;">
	<!ENTITY st5 "fill:#A85F01;">
	<!ENTITY st6 "fill:#CC7700;stroke:#663B00;stroke-width:1.3674;stroke-linecap:round;stroke-miterlimit:10;">
	<!ENTITY st7 "fill:#FFE9CC;stroke:#663B00;stroke-width:0.6837;stroke-linecap:round;stroke-miterlimit:10;">
	<!ENTITY st8 "fill:#995900;stroke:#663B00;stroke-linecap:round;stroke-miterlimit:10;">
	<!ENTITY st9 "fill:#FFD499;stroke:#FFD499;stroke-width:0.6777;stroke-linecap:round;stroke-miterlimit:10;">
	<!ENTITY st10 "fill:#CC7700;">
]>
<svg version="1.1" id="图层_1" xmlns="http://www.w3.org/2000/svg" xmlns:xlink="http://www.w3.org/1999/xlink" x="0px" y="0px"
	 width="100px" height="100px" viewBox="0 0 100 100" style="enable-background:new 0 0 100 100;" xml:space="preserve">
<g transform="translate(-238.71667,-143.54552)">
	<g>
		<g>
			<path style="&st0;" d="M290.954,196.6303c-0.771-0.5292-1.4334-1.2906-1.9873-2.1048c-0.5079-0.7522-0.9115-1.608-1.1087-2.4748
				c-0.13-0.5523-0.0476-1.1518,0.1677-1.6231c0.1665-0.3615,0.5331-0.4673,0.911-0.7275c1.5109-1.0407,2.9704-2.0717,4.5142-3.0106
				c0.3862-0.2351,0.7559-0.7268,1.0337-0.4496c0.4272,0.4299,0.0488,1.351,0.3697,1.9603c0.3258,0.6765,1.0417,1.1095,1.482,1.7221
				c0.5539,0.7681,0.6666,1.7776,1.1608,2.5841c0.2859,0.2862,1.0759,0.1805,1.044,0.5031
				c-0.0297,0.3704-0.5708,0.5596-0.921,0.8061c-1.2675,0.8846-2.5797,1.719-3.8984,2.528
				c-0.3304,0.2026-0.5509,0.3439-0.8298,0.5055c-0.1454,0.0408-0.2832,0.1072-0.4348,0.098
				C291.9581,196.9149,291.4056,196.9494,290.954,196.6303L290.954,196.6303z"/>
			<path style="&st1;" d="M294.9086,190.8746c-0.565-0.8058-1.0344-1.7084-1.3393-2.6329
				c-0.1684-0.5119-0.2017-1.1205,0.0014-1.5601c0.1468-0.3167,0.5628-0.5303,0.914-0.4417
				c0.6918,0.1743,1.5315,0.4835,1.9948,1.1163c0.2258,0.3099-0.588,0.4488-0.5939,0.8279
				c-0.0258,0.5569,0.1875,1.1942,0.5085,1.6998c0.3405,0.5342,0.8692,1.0639,1.4446,1.2913c0.32,0.1267,0.698-0.7582,0.7899-0.5028
				c0.2593,0.6618,0.0701,1.6323-0.0874,2.3371c-0.0439,0.1923-0.2348,0.3672-0.4283,0.3576
				c-0.3693-0.0195-0.7667-0.1172-1.0752-0.3624C296.2622,192.3887,295.5164,191.6791,294.9086,190.8746L294.9086,190.8746z"/>
			<path style="&st2;" d="M288.8199,193.3521c-0.2818-0.6068-0.528-1.2398-0.594-1.8779c-0.0407-0.3956-0.0389-0.8213,0.2802-1.1058
				c1.2849-1.1114,2.8235-1.8946,4.2401-2.8278c0.354-0.2333,0.2091-0.2226,0.2559-0.1248c0.2039,0.4457,0.1888,0.9317,0.328,1.3893
				c0.1121,0.3685,0.3772,0.7265,0.4502,1.1239c0.0122,0.108,0.1512-0.0241-0.22,0.2386c-1.4844,1.0511-3.0185,2.054-4.5227,3.0622
				C288.6615,193.4821,288.8831,193.4918,288.8199,193.3521L288.8199,193.3521z"/>
		</g>
		<path style="&st3;" d="M317.9674,158.203c0.2992,0.0384,0.4769,0.2146,0.7013,0.345c0.3257,0.4076,0.566,0.7553,0.9377,1.2592
			c1.483,2.0119,2.9217,4.0693,4.2121,6.205c0.354,0.5942,0.8218,1.1103,0.732,1.8601c-0.1296,0.9291-0.4971,1.9968-1.3604,2.9531
			c-1.3339,1.4763-3.2173,2.8927-5.0535,4.1523c-1.6349,1.0867-3.3908,1.9945-5.2213,2.7931
			c-1.5383,0.6702-3.2012,1.3174-4.5887,1.381c-0.8208-0.0077-0.9583-0.6431-1.3951-1.2288
			c-1.7463-2.34-3.2168-4.8225-4.7725-7.3424c-0.3892-0.63-0.9514-0.9647-0.812-1.708c0.1851-0.9685,0.7839-2.1299,1.7263-3.1242
			c1.4661-1.5629,3.31-3.029,5.2212-4.2613c2.0763-1.3322,4.2923-2.525,6.4218-3.2398
			C315.975,157.8114,316.9797,158.08,317.9674,158.203L317.9674,158.203z"/>
		<path style="&st4;" d="M321.6919,167.3278c0.8943-0.3491,1.7712-0.3871,2.4964-0.2879c0.3792,0.0531,0.4519,0.4237,0.3622,0.8324
			c-0.2141,0.9367-0.4971,1.9968-1.3604,2.9531c-1.3339,1.4763-3.2173,2.8927-5.0535,4.1523
			c-1.6349,1.0867-3.3908,1.9945-5.2213,2.7931c-1.5383,0.6702-3.2323,1.3595-4.5887,1.381
			c-0.7656,0.0111-1.2982-0.5183-1.1778-1.1698c0.1683-0.9043,0.9983-2.0404,1.9625-2.9441
			c1.7431-1.6322,3.7708-3.1624,5.8577-4.4748C317.1356,169.2688,319.4446,168.2045,321.6919,167.3278L321.6919,167.3278z"/>
		<path style="&st5;" d="M306.812,163.9023c1.5839,2.4562,3.2313,4.9132,4.7236,7.4429c0.3733,0.6323,0.2762,0.3318,0.1169,0.5312
			c-0.6392,0.7228-1.5931,1.3007-2.2701,1.9548c-0.8404,0.8121-1.424,1.7347-2.3721,2.5005
			c-0.2122,0.1673,0.0492,0.2409-0.3285-0.3297c-1.5121-2.2823-3.4449-4.3263-4.4827-6.8964
			c-0.247-0.6543,0.2858-1.4582,0.8612-2.1895c0.9292-1.1798,2.1935-2.2834,3.4926-3.3246
			C306.8489,163.3511,306.4161,163.2879,306.812,163.9023L306.812,163.9023z"/>
		<path style="&st6;" d="M319.6311,171.6189c0.1271,0.0201,0.2043,0.0985,0.3008,0.1576c0.1426,0.1805,0.2483,0.334,0.4114,0.5567
			c0.6509,0.8893,1.2836,1.7978,1.8544,2.7386c0.1567,0.2616,0.3607,0.4908,0.3313,0.8148
			c-0.0441,0.4013-0.1873,0.8599-0.5416,1.2644c-0.5476,0.6246-1.3283,1.2169-2.0909,1.7417
			c-0.6794,0.4522-1.4121,0.8254-2.1776,1.1505c-0.6433,0.2728-1.3397,0.5341-1.9262,0.5456
			c-0.3475-0.0128-0.413-0.2898-0.6046-0.5488c-0.7662-1.0345-1.4172-2.1277-2.1047-3.238
			c-0.172-0.2776-0.4138-0.4292-0.3634-0.7498c0.0671-0.4177,0.3071-0.9143,0.6945-1.3344c0.6025-0.6606,1.3659-1.2749,2.1606-1.787
			c0.8634-0.5536,1.7875-1.045,2.6805-1.3303C318.7834,171.4261,319.2116,171.5542,319.6311,171.6189L319.6311,171.6189z"/>
		<path style="&st7;" d="M321.3129,175.6175c0.3744-0.141,0.7451-0.1473,1.0532-0.096c0.1611,0.0275,0.1962,0.1889,0.1629,0.3651
			c-0.0798,0.4036-0.1873,0.8599-0.5416,1.2644c-0.5476,0.6246-1.3283,1.2169-2.0909,1.7417
			c-0.6794,0.4522-1.4121,0.8254-2.1776,1.1505c-0.6433,0.2728-1.3523,0.552-1.9262,0.5456
			c-0.3239-0.004-0.5554-0.2396-0.512-0.5207c0.0608-0.39,0.399-0.873,0.7966-1.2536c0.7189-0.6874,1.5594-1.3273,2.4275-1.8722
			C319.4068,176.4063,320.3718,175.9716,321.3129,175.6175L321.3129,175.6175z"/>
		<path style="&st5;" d="M315.196,174.1086c0.6488,1.0056,1.3226,2.0124,1.9363,3.0467c0.1534,0.2585,0.1121,0.1365,0.0516,0.2151
			c-0.2435,0.2841-0.6121,0.5064-0.8712,0.7625c-0.3216,0.3179-0.541,0.683-0.9054,0.9811
			c-0.0816,0.0651,0.0219,0.0975-0.1327-0.1362c-0.6187-0.935-1.4002-1.7785-1.8357-2.8242
			c-0.1041-0.266,0.0967-0.5839,0.315-0.8721c0.3525-0.465,0.8375-0.8956,1.3369-1.3008
			C315.2046,173.8871,315.0338,173.857,315.196,174.1086L315.196,174.1086z"/>
		<path style="&st8;" d="M314.868,177.7114c0.2658,0.3997,1.0121,0.6231-0.0587,1.4694c-4.3173,3.4097-9.0942,6.2021-13.6709,9.2437
			c-1.1595,0.7704-1.8879,1.6279-3.0184,1.962c-0.6012,0.1283-1.3635-0.2444-1.6559-0.7127
			c-0.2606-0.421-0.3012-1.0578,0.1006-1.4966c0.8294-0.9112,1.9328-1.2981,3.075-2.0584
			c4.5656-3.0404,8.8413-6.4755,13.5724-9.1201C314.4504,176.3441,314.5541,177.2285,314.868,177.7114L314.868,177.7114z"/>
		<g>
			<path style="&st3;" d="M328.1674,173.603c0.2992,0.0384,0.4769,0.2146,0.7013,0.345c0.3257,0.4076,0.566,0.7553,0.9377,1.2592
				c1.483,2.0119,2.9217,4.0693,4.2121,6.205c0.354,0.5942,0.8218,1.1103,0.732,1.8601c-0.1296,0.9291-0.4971,1.9968-1.3604,2.9531
				c-1.3339,1.4763-3.2173,2.8927-5.0535,4.1523c-1.6349,1.0867-3.3908,1.9945-5.2213,2.7931
				c-1.5383,0.6702-3.2012,1.3174-4.5887,1.381c-0.8208-0.0077-0.9583-0.6431-1.3951-1.2288
				c-1.7463-2.34-3.2168-4.8225-4.7725-7.3424c-0.3892-0.63-0.9514-0.9647-0.812-1.708c0.1851-0.9685,0.7839-2.1299,1.7263-3.1242
				c1.4661-1.5629,3.31-3.029,5.2212-4.2613c2.0763-1.3322,4.2923-2.525,6.4218-3.2398
				C326.175,173.2115,327.1797,173.4801,328.1674,173.603L328.1674,173.603z"/>
			<path style="&st4;" d="M331.9419,182.7778c0.8943-0.3491,1.7712-0.3871,2.4964-0.2879c0.3792,0.0531,0.4519,0.4237,0.3622,0.8324
				c-0.2141,0.9367-0.4971,1.9968-1.3604,2.9531c-1.3339,1.4763-3.2173,2.8927-5.0535,4.1523
				c-1.6349,1.0867-3.3908,1.9945-5.2213,2.7931c-1.5383,0.6702-3.2323,1.3595-4.5887,1.381
				c-0.7656,0.0111-1.2982-0.5183-1.1778-1.1698c0.1683-0.9043,0.9983-2.0404,1.9625-2.9441
				c1.7431-1.6322,3.7708-3.1624,5.8577-4.4748C327.3856,184.7188,329.6946,183.6544,331.9419,182.7778L331.9419,182.7778z"/>
			<path style="&st5;" d="M317.012,179.3523c1.5839,2.4562,3.2313,4.9132,4.7236,7.4429c0.3733,0.6323,0.2762,0.3318,0.1169,0.5312
				c-0.6392,0.7228-1.5931,1.3007-2.2701,1.9548c-0.8404,0.8121-1.424,1.7347-2.3721,2.5005
				c-0.2122,0.1673,0.0492,0.2409-0.3285-0.3297c-1.5121-2.2823-3.4449-4.3263-4.4827-6.8964
				c-0.247-0.6543,0.2858-1.4582,0.8612-2.1895c0.9292-1.1798,2.1935-2.2834,3.4926-3.3246
				C317.0489,178.8011,316.6161,178.7379,317.012,179.3523L317.012,179.3523z"/>
			<path style="&st9;" d="M327.6981,189.2345l-2.552,0.6458l-3.4708,2.3066l1.7985-1.7262l-2.5083,0.8706l3.7434-2.2812
				l1.1941-1.7891l0.9414,0.5024l4.8187-2.6763l-4.1526,3.307L327.6981,189.2345z"/>
		</g>
		<path style="&st10;" d="M314.4456,177.6609c0.1931,0.2311,0.5857,0.3433,0.0335,0.6938c-2.3771,1.7192-4.9992,3.067-7.4098,4.5181
			c-1.8404,1.1081-3.6057,2.3593-5.4965,3.3807c-1.4238,0.7692-4.2808,2.0144-4.2672,2.0115
			c-0.067-0.0793,2.5175-1.7711,3.8432-2.6638c1.7827-1.2005,3.537-2.4541,5.3211-3.6507c2.2738-1.5257,4.3749-3.2897,6.7725-4.581
			C313.843,177.0495,314.1701,177.3653,314.4456,177.6609L314.4456,177.6609z"/>
	</g>
</g>
</svg>
