<?xml version="1.0" encoding="utf-8"?>
<!-- Generator: Adobe Illustrator 26.0.0, SVG Export Plug-In . SVG Version: 6.00 Build 0)  -->
<!DOCTYPE svg PUBLIC "-//W3C//DTD SVG 1.1//EN" "http://www.w3.org/Graphics/SVG/1.1/DTD/svg11.dtd" [
	<!ENTITY st0 "fill:#CCCCCC;stroke:#666666;stroke-width:1.1215;stroke-linecap:round;">
	<!ENTITY st1 "fill:#E5E5E5;stroke:#666666;stroke-width:1.1215;stroke-linecap:round;">
	<!ENTITY st2 "fill:#7F7F7F;">
	<!ENTITY st3 "fill:#CC7700;stroke:#663B00;stroke-width:1.6206;stroke-linecap:round;">
	<!ENTITY st4 "fill:#FFE9CC;stroke:#663B00;stroke-width:1.6206;stroke-linecap:round;">
	<!ENTITY st5 "fill:#A85F01;">
	<!ENTITY st6 "fill:#CC7700;stroke:#663B00;stroke-width:1.3674;stroke-linecap:round;">
	<!ENTITY st7 "fill:#FFE9CC;stroke:#663B00;stroke-width:0.6837;stroke-linecap:round;">
	<!ENTITY st8 "fill:#995900;stroke:#663B00;stroke-linecap:round;">
	<!ENTITY st9 "fill:#FFD499;stroke:#FFD499;stroke-width:0.6777;stroke-linecap:round;">
	<!ENTITY st10 "fill:#CC7700;">
]>
<svg version="1.1" id="图层_1" xmlns="http://www.w3.org/2000/svg" xmlns:xlink="http://www.w3.org/1999/xlink" x="0px" y="0px"
	 width="100px" height="100px" viewBox="0 0 100 100" style="enable-background:new 0 0 100 100;" xml:space="preserve">
<g id="ID0.29776319907978177">
	<g id="ID0.9383500148542225">
		<path id="ID0.9641242874786258" style="&st0;" d="M53.997,49.7726c0.0904-0.1221,0.1097-0.2738,0.1547-0.4179
			c0.0166-0.322,0.0183-0.5838,0.0285-0.9712c0.0404-1.5466,0.0559-3.1015,0.0049-4.6463c-0.0158-0.4281,0.1205-0.9848-0.174-1.2116
			c-0.253-0.2026-0.595,0.5175-0.9907,0.6012c-0.9455-0.0252-1.8534-0.4809-2.7992-0.435c-0.7536,0.0352-1.5069,0.3996-2.2516,0.304
			c-0.6857-0.063-1.2518-0.8822-1.8451-0.7584c-0.3838,0.0819-0.173,0.6598-0.1864,1.1118
			c-0.0541,1.8061,0.0149,3.5917,0.0641,5.4257c0.0122,0.4586-0.0988,0.8236,0.1135,1.1602
			c0.2778,0.4374,0.7355,0.8332,1.2694,1.0252c0.8343,0.3071,1.7718,0.4351,2.6793,0.4191
			c0.9845-0.0206,1.9839-0.1611,2.8478-0.5191C53.4259,50.6556,53.698,50.1735,53.997,49.7726z"/>
		<path id="ID0.9641242874786258_00000048482043885284275860000009248477460126090166_" style="&st1;" d="M53.1878,43.7836
			c0.3737-0.1251,0.6722-0.4049,0.8898-0.704c0.1135-0.157,0.0709-0.4124-0.0665-0.554c-0.505-0.5162-1.2156-1.2037-1.9119-1.347
			c-0.2641-0.062,0.2718,0.7371-0.0088,0.9363c-0.5043,0.3586-1.2365,0.5132-1.8701,0.5076c-0.5988-0.0065-1.2494-0.1749-1.7023-0.5
			c-0.3146-0.2116,0.0125-0.9697-0.3704-0.9492c-0.783,0.0436-1.5,0.5791-2.0231,1.0641c-0.2657,0.2462-0.3133,0.7114-0.1278,1.0071
			c0.2579,0.4099,0.7864,0.7136,1.3073,0.8514c0.9413,0.2482,1.954,0.3465,2.9374,0.312
			C51.2473,44.3367,52.2487,44.0981,53.1878,43.7836z"/>
		<path id="ID0.5316407033242285" style="&st2;" d="M49.0218,50.6696c-0.0256-1.8107-0.0304-3.6435-0.1027-5.4609
			c-0.018-0.4544,0.0171-0.2658-0.0802-0.3145c-0.373-0.1553-0.8176-0.1281-1.1877-0.235
			c-0.4595-0.1327-0.8588-0.4102-1.3435-0.4822c-0.1076-0.014-0.0376-0.1413-0.0349,0.2827
			c0.0105,1.6963-0.1714,3.4131,0.0602,5.0961c0.0646,0.4226,0.4206,0.6562,0.7744,0.8376c0.5711,0.2924,1.2359,0.431,1.8983,0.5254
			C49.1573,50.9419,49.0283,51.1224,49.0218,50.6696z"/>
	</g>
	<path id="ID0.9641242874786258_00000016067418514309461060000009445098636842657183_" style="&st3;" d="M35.3928,7.2018
		c0.1952-0.23,0.4398-0.283,0.6714-0.4c0.5193-0.051,0.9418-0.063,1.5668-0.1c2.4951-0.147,5.0042-0.232,7.4981-0.15
		c0.6911,0.027,1.3788-0.084,1.9585,0.4c0.7084,0.615,1.4034,1.505,1.7346,2.75c0.5109,1.923,0.6721,4.274,0.7275,6.5
		c0.0201,1.963-0.1757,3.93-0.5036,5.9c-0.2765,1.655-0.6402,3.402-1.343,4.6c-0.4538,0.684-1.0615,0.453-1.7906,0.5
		c-2.9136,0.189-5.7965,0.069-8.7571,0c-0.7403-0.017-1.3273,0.272-1.8746-0.25c-0.7112-0.683-1.3586-1.818-1.6786-3.15
		c-0.5115-2.081-0.7359-4.426-0.7275-6.7c0.0146-2.467,0.2222-4.975,0.7834-7.15C33.9787,8.6588,34.7515,7.9628,35.3928,7.2018z"/>
	<path id="ID0.9641242874786258_00000064319655537737872580000007398480498294956945_" style="&st4;" d="M45.0732,9.0518
		c0.1947-0.94,0.6407-1.696,1.1191-2.25c0.2512-0.289,0.6015-0.148,0.8953,0.15c0.6687,0.69,1.4034,1.505,1.7346,2.75
		c0.5109,1.923,0.6721,4.274,0.7275,6.5c0.0201,1.963-0.1757,3.93-0.5036,5.9c-0.2765,1.655-0.6217,3.451-1.343,4.6
		c-0.4079,0.648-1.1421,0.806-1.6227,0.35c-0.6665-0.634-1.1667-1.949-1.3989-3.25c-0.4186-2.351-0.5965-4.885-0.5596-7.35
		C44.2176,13.9298,44.5836,11.4138,45.0732,9.0518z"/>
	<path id="ID0.5316407033242285_00000137109884888727195350000014938742860506469002_" style="&st5;" d="M34.0934,19.7015
		c2.9225,0.0105,5.8804-0.0316,8.8147,0.0958c0.7336,0.0316,0.4287-0.0508,0.5091,0.1915c0.2577,0.9298,0.2223,2.0445,0.4018,2.9686
		c0.223,1.1472,0.6784,2.1393,0.8038,3.3517c0.0247,0.2691,0.2288,0.09-0.4555,0.0957c-2.7376,0.024-5.5047,0.5306-8.2252,0
		c-0.6832-0.1493-1.0669-1.0342-1.3664-1.9152c-0.4828-1.4221-0.7192-3.0835-0.8842-4.7402
		C33.6513,19.3702,33.3625,19.6986,34.0934,19.7015z"/>
	<path id="ID0.9641242874786258_00000084494085320945683090000011996353978574869424_" style="&st6;" d="M47.5514,13.1344
		c0.0862-0.0956,0.194-0.1177,0.2962-0.1663c0.229-0.0212,0.4153-0.0262,0.6909-0.0416c1.1004-0.0611,2.2069-0.0964,3.3068-0.0623
		c0.3047,0.0112,0.608-0.035,0.8637,0.1663c0.3124,0.2556,0.6189,0.6256,0.765,1.1432c0.2253,0.7995,0.2963,1.7768,0.3208,2.7023
		c0.0089,0.816-0.0775,1.6338-0.2221,2.4528c-0.1219,0.688-0.2823,1.4143-0.5923,1.9123c-0.2001,0.2844-0.4681,0.1883-0.7896,0.2079
		c-1.285,0.0786-2.5564,0.0287-3.862,0c-0.3265-0.0071-0.5854,0.1131-0.8267-0.1039c-0.3137-0.284-0.5992-0.7558-0.7403-1.3096
		c-0.2256-0.8651-0.3245-1.84-0.3208-2.7854c0.0064-1.0256,0.0979-2.0682,0.3454-2.9725
		C46.9278,13.7401,47.2686,13.4508,47.5514,13.1344z"/>
	<path id="ID0.9641242874786258_00000005256729945728525040000012101522510520412558_" style="&st7;" d="M51.8206,13.9035
		c0.0859-0.3908,0.2826-0.7051,0.4935-0.9354c0.1108-0.1202,0.2653-0.0615,0.3949,0.0624c0.2949,0.2868,0.6189,0.6256,0.765,1.1432
		c0.2253,0.7995,0.2963,1.7768,0.3208,2.7023c0.0089,0.816-0.0775,1.6338-0.2221,2.4528c-0.1219,0.688-0.2742,1.4346-0.5923,1.9123
		c-0.1799,0.2694-0.5036,0.3351-0.7156,0.1455c-0.2939-0.2635-0.5145-0.8102-0.6169-1.3511
		c-0.1846-0.9774-0.2631-2.0308-0.2468-3.0556C51.4433,15.9314,51.6047,14.8854,51.8206,13.9035z"/>
	<path id="ID0.5316407033242285_00000052821449895292443020000011983205722486751376_" style="&st5;" d="M47.2294,18.2221
		c1.1968,0.0041,2.4081-0.0122,3.6097,0.037c0.3004,0.0122,0.1756-0.0196,0.2085,0.0739c0.1055,0.359,0.091,0.7893,0.1645,1.146
		c0.0913,0.4429,0.2779,0.8259,0.3292,1.2939c0.0101,0.1039,0.0937,0.0348-0.1865,0.037c-1.1211,0.0092-2.2543,0.2048-3.3684,0
		c-0.2797-0.0577-0.4369-0.3993-0.5595-0.7394c-0.1977-0.5489-0.2945-1.1903-0.3621-1.8299
		C47.0484,18.0942,46.9301,18.221,47.2294,18.2221z"/>
	<path id="ID0.5344440103508532" style="&st8;" d="M50.0437,20.4518c0.48-0.005,1.074-0.509,1.2,0.85
		c0.506,5.478,0.244,11.005,0.3,16.5c0.014,1.392,0.336,2.47,0,3.6c-0.22,0.574-0.948,1.01-1.5,1c-0.495-0.011-1.051-0.324-1.2-0.9
		c-0.312-1.192-0.035-2.328-0.05-3.7c-0.061-5.485-0.611-10.942-0.25-16.35C48.6697,20.0568,49.4677,20.4518,50.0437,20.4518z"/>
	<g id="ID0.9383500148542225_00000060734986361417022590000015933562525287342733_">
		<path id="ID0.9641242874786258_00000059284250223691459740000013706434303131039139_" style="&st3;" d="M53.8928,7.0518
			c0.1952-0.23,0.4398-0.283,0.6714-0.4c0.5193-0.051,0.9418-0.063,1.5668-0.1c2.4951-0.147,5.0042-0.232,7.4981-0.15
			c0.6911,0.027,1.3788-0.084,1.9585,0.4c0.7084,0.615,1.4034,1.505,1.7346,2.75c0.5109,1.923,0.6721,4.274,0.7275,6.5
			c0.0201,1.963-0.1757,3.93-0.5036,5.9c-0.2765,1.655-0.6402,3.402-1.343,4.6c-0.4538,0.684-1.0615,0.453-1.7906,0.5
			c-2.9136,0.189-5.7965,0.069-8.7571,0c-0.7403-0.017-1.3273,0.272-1.8746-0.25c-0.7112-0.683-1.3586-1.818-1.6786-3.15
			c-0.5115-2.081-0.7359-4.426-0.7275-6.7c0.0146-2.467,0.2222-4.975,0.7834-7.15C52.4787,8.5088,53.2515,7.8128,53.8928,7.0518z"/>
		<path id="ID0.9641242874786258_00000024692664798034395620000007264740280951421885_" style="&st4;" d="M63.6232,8.9018
			c0.1947-0.94,0.6407-1.696,1.1191-2.25c0.2512-0.289,0.6015-0.148,0.8953,0.15c0.6687,0.69,1.4034,1.505,1.7346,2.75
			c0.5109,1.923,0.6721,4.274,0.7275,6.5c0.0201,1.963-0.1757,3.93-0.5036,5.9c-0.2765,1.655-0.6217,3.451-1.343,4.6
			c-0.4079,0.648-1.1421,0.806-1.6227,0.35c-0.6665-0.634-1.1667-1.949-1.3989-3.25c-0.4186-2.351-0.5965-4.885-0.5596-7.35
			C62.7676,13.7798,63.1336,11.2638,63.6232,8.9018z"/>
		<path id="ID0.5316407033242285_00000036217957283257162690000008965849711656356488_" style="&st5;" d="M52.5934,19.5515
			c2.9225,0.0105,5.8804-0.0316,8.8147,0.0958c0.7336,0.0316,0.4287-0.0508,0.5091,0.1915
			c0.2577,0.9298,0.2223,2.0445,0.4018,2.9686c0.223,1.1472,0.6784,2.1393,0.8038,3.3517c0.0247,0.2691,0.2288,0.09-0.4555,0.0957
			c-2.7376,0.024-5.5047,0.5306-8.2252,0c-0.6832-0.1493-1.0669-1.0342-1.3664-1.9152c-0.4828-1.4221-0.7192-3.0835-0.8842-4.7402
			C52.1513,19.2202,51.8625,19.5486,52.5934,19.5515z"/>
		<path id="ID0.49015068216249347" style="&st9;" d="M65.9199,15.6531l-0.5096-5.2841l-0.3822,5.4989l-0.9342,0.5155l0.8493,1.9762
			l-0.1274,4.3819l0.637-2.5776l0.4671,2.4487l-0.0424-4.1671l0.8493-2.4917L65.9199,15.6531z"/>
	</g>
	<path id="ID0.456982902251184" style="&st10;" d="M49.7937,20.8018c0.299-0.036,0.607-0.304,0.6,0.35
		c0.146,2.93-0.153,5.863-0.25,8.675c-0.074,2.147,0.013,4.309-0.161,6.451c-0.131,1.613-0.644,4.687-0.639,4.674
		c-0.103,0.013-0.113-3.076-0.139-4.674c-0.035-2.149-0.13-4.303-0.161-6.451c-0.04-2.738-0.374-5.461-0.15-8.175
		C48.9527,20.9738,49.3957,20.8718,49.7937,20.8018z"/>
</g>
</svg>
