<?xml version="1.0" encoding="utf-8"?>
<!-- Generator: Adobe Illustrator 26.0.0, SVG Export Plug-In . SVG Version: 6.00 Build 0)  -->
<svg version="1.1" id="图层_1" xmlns="http://www.w3.org/2000/svg" xmlns:xlink="http://www.w3.org/1999/xlink" x="0px" y="0px"
	 width="200px" height="360px" viewBox="0 0 200 360" style="enable-background:new 0 0 200 360;" xml:space="preserve">
<style type="text/css">
	.st0{fill:#BDBDBD;stroke:url(#SVGID_1_);stroke-width:3.9832;stroke-linecap:round;stroke-miterlimit:10;}
	.st1{fill:#DADADA;}
	.st2{fill:#B1B1B1;}
	.st3{fill:#EBEBEB;}
	
		.st4{fill:#D57801;stroke:url(#SVGID_00000042005636823653904070000016744706880512072618_);stroke-width:1.8089;stroke-linecap:round;stroke-miterlimit:10;}
	.st5{fill:#9C5801;}
	.st6{fill:#FF9400;stroke:#522E00;stroke-width:2.0457;stroke-linecap:round;stroke-miterlimit:10;}
	.st7{fill:#FF9400;stroke:#522E00;stroke-width:1.8489;stroke-linecap:round;stroke-miterlimit:10;}
	.st8{fill:#C31003;stroke:#4F0601;stroke-width:1.4857;stroke-linecap:round;stroke-miterlimit:10;}
	.st9{fill:#A80D03;}
	
		.st10{fill:none;stroke:url(#SVGID_00000048491580064827760360000009773034718948409228_);stroke-width:2.08;stroke-linecap:round;stroke-miterlimit:10;}
	.st11{fill:none;stroke:#131313;stroke-width:1.8489;stroke-linecap:round;stroke-miterlimit:10;}
	.st12{fill:#F6F6F6;stroke:#131313;stroke-width:2.08;stroke-miterlimit:10;}
	.st13{fill:#E1E1E1;}
	.st14{fill:#FFFFFF;}
	.st15{fill:url(#SVGID_00000142887934581090400610000001690590933596512146_);}
	.st16{fill:#CFCFCF;}
	.st17{fill:#E4E4E4;}
	.st18{fill:#E98800;stroke:#8F5A00;stroke-width:3.9832;stroke-linecap:round;stroke-miterlimit:10;}
	.st19{fill:#FFA300;}
	.st20{fill:url(#SVGID_00000091001223380387094670000007074509471491122354_);}
	.st21{fill:#2EABA1;}
	.st22{fill:#FFB638;}
	.st23{fill:#FFA62B;}
	.st24{fill:#FF9500;stroke:#784600;stroke-width:1.5;stroke-miterlimit:10;}
	.st25{fill:#C97500;}
	.st26{fill:#FFB54D;}
	.st27{fill:#B4FFFF;}
	.st28{fill:url(#SVGID_00000142881366055686573670000002612502724885407125_);}
	.st29{fill:url(#SVGID_00000057866971242853372160000016698156447783749248_);}
	.st30{fill:none;stroke:#858585;stroke-width:1.5;stroke-linecap:round;stroke-miterlimit:10;}
</style>
<g id="home" transform="translate(-170.929,-45.71598)">
	<g>
		
			<linearGradient id="SVGID_1_" gradientUnits="userSpaceOnUse" x1="614.442" y1="-56.7493" x2="614.442" y2="140.3018" gradientTransform="matrix(1 0 0 1 -341.858 212)">
			<stop  offset="0" style="stop-color:#6B6B6B"/>
			<stop  offset="1" style="stop-color:#444444"/>
		</linearGradient>
		<path class="st0" d="M206,164.1c0,0-1.2-8.9,68-8.8c66.9,0.1,65,8.8,65,8.8l0.2,172.5c0,0-18.4,15.5-65.2,15.7
			c-52.9,0.2-68-16.4-68-16.4L206,164.1z"/>
		<path class="st1" d="M337,164.5c0,3.9-27.4,9.4-62.9,9.4s-65.8-5.6-65.8-9.4s28.8-7,64.3-7S337,160.6,337,164.5z"/>
		<path class="st2" d="M274.8,157.7c10.6-0.1,26.5,1.2,36.7,2c9.2,0.7,12.8,2.2,21.7,3.6c2.2,0.4-42.7-4.1-61.2-4
			c-19.9,0.1-61.4,4.2-59.8,3.8c5.9-1.5,15.7-3.4,22.2-3.9C248.9,158,260.2,157.8,274.8,157.7L274.8,157.7z"/>
		<path class="st3" d="M273.2,160.2c12.9,0,24.6,0.5,33.1,1.3c8.5,0.8,13.7,1.9,13.7,3s-5.2,2.3-13.7,3c-8.5,0.8-20.2,1.3-33.1,1.3
			c-12.9,0-24.6-0.5-33.1-1.3c-8.5-0.8-13.7-1.9-13.7-3s5.2-2.3,13.7-3C248.5,160.7,260.3,160.2,273.2,160.2z"/>
		<g>
			<g>
				<g>
					
						<linearGradient id="SVGID_00000097461024873437492750000000586859065521716657_" gradientUnits="userSpaceOnUse" x1="646.6932" y1="-57.4396" x2="646.6932" y2="-47.6683" gradientTransform="matrix(1 0 0 1 -341.858 212)">
						<stop  offset="0" style="stop-color:#4F2D00"/>
						<stop  offset="1" style="stop-color:#522E00"/>
					</linearGradient>
					
						<path style="fill:#D57801;stroke:url(#SVGID_00000097461024873437492750000000586859065521716657_);stroke-width:1.8089;stroke-linecap:round;stroke-miterlimit:10;" d="
						M304.7,164.3l-4.4-0.4l4.4-9.4l4.7,9.4L304.7,164.3z"/>
					<path class="st5" d="M304.9,157.3c0.6-0.1,0.6,1.4,1,2.2c0.3,0.7,0.8,1.3,1.1,2c0.3,0.5,1.1,1.2,0.7,1.6
						c-0.6,0.6-1.8,0.5-2.6,0.2c-0.5-0.1-0.5-0.8-1-1.2c-0.3-0.3-1.1-0.3-1.2-0.8c-0.1-0.6,0.3-1,0.5-1.5
						C303.8,158.9,304.2,157.4,304.9,157.3L304.9,157.3z"/>
				</g>
				<path class="st6" d="M286.2,123.3c1.7,0.2,3.8,1.1,5.6,3.7c1.7,2.6,3.2,6.3,4,10.6c0.8,4.3,0.8,8.3,0.1,11.3
					c-0.7,3-2.1,4.6-3.9,5.4c-0.9,0.4-1.1-1.7-1-2.9c-0.3-4.6,1.1-9.2,0.3-13.8c-0.7-3.9-3.6-7-5-10.6
					C285.8,125.7,285.3,123.2,286.2,123.3L286.2,123.3z"/>
				<path class="st7" d="M292.8,155.9c0.3-1.2,2.5-2.4,4.1-2.8c2.8-0.9,5.9-0.8,8.9-1c2.6-0.1,5.2-0.2,7.5,0.7
					c2.1,0.5,4.6,1.8,5.5,3.3c0.4,0.6-1.6,0.5-2.5,0.4c-3.6,0-7-0.6-10.5-0.7c-3.4,0.1-6.8,0.8-10.1,0.8
					C294.7,156.6,292.6,156.6,292.8,155.9L292.8,155.9z"/>
				<path class="st5" d="M304.2,153.9c2.1,0,4.1,0.4,6.3,0.7c2.3,0.3,5.2,0.6,6.8,1c0.6,0.1-1.6,0-2.3,0c-3.1-0.2-5.9-0.6-8.9-0.6
					c-2.9,0-5.7,0.7-8.5,0.8c-0.8,0-2.6-0.1-2.3-0.4c0.3-0.3,2.3-0.8,3.5-1C300.5,154.2,302.3,153.9,304.2,153.9z"/>
				<path class="st5" d="M292.4,137.4c0.3,1.5-0.1,3.2,0,4.7c0.1,2.8-0.4,6.7,0.4,8.4c0.4,0.8,1.8-3.4,2-3.4c0.2,0-0.2,2.5-0.7,3.5
					c-0.6,1-1.7,2.6-2.4,2.6c-0.6,0-0.2-1.6-0.2-2.8c-0.1-4.8,0.7-9.8-0.1-14.6c-0.5-3.1-2.8-5.6-4-8.5c-0.3-0.8-1.1-3-0.7-2.5
					c1.2,1.5,2.6,4.4,3.6,6.8C291.1,133.4,292,135.3,292.4,137.4z"/>
				<path class="st8" d="M295.8,153c0.2-1,1.9-2,3.1-2.4c2.2-0.8,4.5-0.7,6.8-0.8c2-0.1,4-0.1,5.8,0.6c1.6,0.4,3.5,1.5,4.2,2.8
					c0.3,0.5-1.2,0.4-1.9,0.4c-2.7,0-5.4-0.5-8.1-0.6c-2.6,0.1-5.2,0.7-7.7,0.6C297.3,153.6,295.6,153.6,295.8,153z"/>
				<path class="st9" d="M303.8,151.6c1.6,0,3.1,0.2,4.7,0.4c1.8,0.2,4.1,0.5,5.4,0.8c0.4,0.1-1.2,0-1.8,0c-2.4-0.1-4.7-0.5-7-0.4
					c-2.3,0-4.5,0.5-6.7,0.7c-0.6,0-2-0.1-1.8-0.3c0.3-0.2,1.8-0.6,2.7-0.8C300.7,151.7,302.2,151.6,303.8,151.6L303.8,151.6z"/>
			</g>
			<g>
				
					<linearGradient id="SVGID_00000170258154514567956690000015423465333084032696_" gradientUnits="userSpaceOnUse" x1="652.6176" y1="-77.5674" x2="652.6176" y2="-45.3042" gradientTransform="matrix(1 0 0 1 -341.858 212)">
					<stop  offset="0" style="stop-color:#131313"/>
					<stop  offset="1" style="stop-color:#131313"/>
				</linearGradient>
				
					<path style="fill:none;stroke:url(#SVGID_00000170258154514567956690000015423465333084032696_);stroke-width:2.08;stroke-linecap:round;stroke-miterlimit:10;" d="
					M320.3,166.7l-5.6-11.9l-6.7-4.9l-0.1-15.5l6,8.8l-6,3.2l-6.2-3l5.2-8"/>
				<path class="st11" d="M308,150.3l10.3,2l-5.3,15.1"/>
				<path class="st12" d="M308.2,115.8c2.8,0,5.4,1.1,7.3,2.9c1.9,1.8,3,4.2,3,6.9c0,2.7-1.2,5.2-3,6.9c-1.9,1.8-4.4,2.9-7.3,2.9
					c-2.8,0-5.4-1.1-7.3-2.9s-3-4.2-3-6.9c0-2.7,1.2-5.2,3-6.9S305.4,115.8,308.2,115.8z"/>
				<path class="st13" d="M305,132c2.2,0.3,4.5,0.4,6.7,0.3c0.8,0,2.4-0.6,2.5-0.5c0.1,0.2-1.1,1.1-1.8,1.3c-1.5,0.5-3.1,1-4.7,0.9
					c-1.4-0.1-2.8-0.8-4.2-1.4c-0.7-0.3-2-1.3-1.7-1.4C302.1,131.2,303.9,131.9,305,132z"/>
				<path class="st14" d="M308.3,116.6c1.6,0,3.3,0.6,4.7,1.4c1.3,0.8,2.4,2,3.2,3.4c0.6,1.2,0.9,2.6,0.9,3.9c0,1.2-0.1,2.7-0.9,3.6
					c-1,1-2.7,1.2-4,1.4c-2,0.3-4,0.4-6,0.1c-2-0.3-4.5-0.4-6-1.8c-1.1-1.2-1.1-3.4-0.7-5c0.6-2.1,1.9-4,3.6-5.3
					C304.5,117.1,306.5,116.7,308.3,116.6z"/>
			</g>
		</g>
		
			<linearGradient id="SVGID_00000078759556501115738650000008712747676315401374_" gradientUnits="userSpaceOnUse" x1="572.6313" y1="-42.9308" x2="572.6313" y2="134.42" gradientTransform="matrix(1 0 0 1 -341.858 212)">
			<stop  offset="0" style="stop-color:#B4B4B4"/>
			<stop  offset="1" style="stop-color:#A3A3A3"/>
		</linearGradient>
		<path style="fill:url(#SVGID_00000078759556501115738650000008712747676315401374_);" d="M227.3,175.8c10.4,1.5,18,1.9,18,1.9
			s-18.2,69.1-20,98.7c-1.3,21.2,26.8,71.5,26.8,71.5s-15.1-2.6-24.3-5.4c-9.2-2.8-18.3-8.4-18.3-8.4l0.2-165
			C209.7,169.1,216.9,174.3,227.3,175.8L227.3,175.8z"/>
		<path class="st16" d="M278.2,177.8c0,0,25.9-1.3,36.3-2.7c8-1.1,20.7-4.8,20.7-4.8s1.6,163.1-0.5,165.5c-4.2,4.9-12,5.9-18.5,8
			c-8.2,2.7-28.5,3.5-28.5,3.5s-10.3-19.8-12.5-27c-4.6-14.7-13-27.9-13.5-44c-0.3-12.8,1.2-26,4-42.5
			C268.5,217.4,278.2,177.8,278.2,177.8L278.2,177.8z"/>
		<path class="st17" d="M330.7,177.3c3.6,0.5,0.4,51.9,1,74c0,9.8,1,19.5,1,29.2c0,15.2,0.9,32.2-0.5,48.2c-0.3,4-1,4-3,2
			c-8.2-8-16.8-17.1-22.5-27.5c-4.8-8.8-9.5-19.2-9.5-29.5c0-9.2,0.3-67,3.5-76C308.7,177.1,327.1,176.8,330.7,177.3z"/>
		<path class="st18" d="M292.7,282.6c0,0,8.2,0.3,24.8-2.3c14.9-2.3,21.5-6.8,21.5-6.8l0.3,63.1c0,0-5.4,4.7-21.1,9.7
			c-9.1,2.9-25.8,5.1-25.8,5.1L292.7,282.6z"/>
		<path class="st19" d="M336.4,277.5l-0.1,57.4c0,0-9.3,6.2-17.4,8.7c-6.8,2.3-21.1,4.8-21.1,4.8l0.2-63.5c0,0,13.3-0.7,21.6-2.3
			C327.9,280.9,336.4,277.5,336.4,277.5L336.4,277.5z"/>
		<g>
			
				<linearGradient id="SVGID_00000068636273212454044510000013684127802585921964_" gradientUnits="userSpaceOnUse" x1="573.559" y1="11.7347" x2="680.9089" y2="11.7347" gradientTransform="matrix(1 0 0 1 -341.858 212)">
				<stop  offset="0" style="stop-color:#AAFCEC"/>
				<stop  offset="1" style="stop-color:#00FFFF"/>
			</linearGradient>
			<path style="fill:url(#SVGID_00000068636273212454044510000013684127802585921964_);" d="M302.3,192.1c21.9-1.7,36.8-7,36.8-7
				l0,67c0,0-12,7.3-38.9,9.7c-33,3-68.4-4.8-68.4-4.8l14.2-64.6C246,192.3,280.4,193.8,302.3,192.1L302.3,192.1z"/>
			<path class="st21" d="M284.4,264.4c-27.6,0-52.8-5.5-53.1-5.5l-1.9-0.4l15-68.2l1.7,0.1c0.3,0,34.6,1.5,56.1-0.2
				c21.4-1.7,36.1-6.9,36.2-6.9l2.7-1l0,71l-1,0.6c-0.5,0.3-12.7,7.5-39.8,10C295,264.2,289.7,264.4,284.4,264.4z M234.1,255.4
				c7.8,1.5,37.9,6.9,65.9,4.4c22-2,33.8-7.2,37.1-8.9l0-63.1c-5.2,1.6-17.8,5-34.6,6.3c-19,1.5-47.7,0.6-54.9,0.3L234.1,255.4z"/>
		</g>
		<path class="st22" d="M336.6,277.6l-0.4,45.7c0,0-0.9,16.7-16.1,17.2c-5.7,0.2-11.4-0.6-13.9-8c-5.5-16.5-2.8-47.9-2.8-47.9
			s13.9-1.1,22.5-3.3C329.4,280.4,336.6,277.6,336.6,277.6L336.6,277.6z"/>
		<path d="M308,122.2c0.9-0.5,1.7-0.9,2.3-1.1c0.6-0.2,1.1-0.3,1.1-0.1c0.1,0.2-0.2,0.5-0.7,0.9c-0.5,0.4-1.3,0.9-2.1,1.4
			c-0.9,0.5-1.7,0.9-2.3,1.1c-0.6,0.2-1.1,0.3-1.1,0.1c-0.1-0.2,0.2-0.5,0.7-0.9C306.3,123.2,307.1,122.7,308,122.2z"/>
		<path d="M309.8,122.6c0.2,0,0.4,0.3,0.5,0.9s0.2,1.3,0.2,2.1s-0.1,1.6-0.2,2.1c-0.1,0.5-0.3,0.9-0.5,0.9s-0.4-0.3-0.5-0.9
			s-0.2-1.3-0.2-2.1s0.1-1.6,0.2-2.1S309.5,122.6,309.8,122.6z"/>
		<path d="M316.4,122.2c0.5,0.2,1,0.4,1.3,0.7c0.3,0.2,0.5,0.4,0.4,0.5c-0.1,0.1-0.3,0.2-0.7,0.1c-0.4,0-0.9-0.2-1.4-0.4
			c-0.5-0.2-1-0.4-1.3-0.7c-0.3-0.2-0.5-0.4-0.4-0.5c0.1-0.1,0.3-0.2,0.7-0.1C315.4,121.9,315.9,122,316.4,122.2z"/>
		<path d="M316.6,122.9c0.2,0,0.3,0.3,0.4,0.7c0.1,0.4,0.2,1,0.2,1.7s-0.1,1.2-0.2,1.7s-0.3,0.7-0.4,0.7s-0.3-0.3-0.4-0.7
			c-0.1-0.4-0.2-1-0.2-1.7s0.1-1.2,0.2-1.7S316.5,122.9,316.6,122.9z"/>
		<path class="st23" d="M336.8,314c0,2.7-1.6,4.9-3.6,4.9c-2,0-4.8-2.3-4.8-5s2.8-4.7,4.8-4.7S336.8,311.3,336.8,314z"/>
		<g>
			<path class="st24" d="M333.7,303.9c1.3,0,2.4,0.7,3.3,1.8c0.8,1.1,1.4,2.6,1.4,4.3c0,1.7-0.5,3.2-1.4,4.3c-0.8,1.1-2,1.8-3.3,1.8
				s-2.4-0.7-3.3-1.8c-0.8-1.1-1.4-2.6-1.4-4.3c0-1.7,0.5-3.2,1.4-4.3C331.3,304.6,332.4,303.9,333.7,303.9z"/>
			<path class="st25" d="M330.5,307.4c0,0-0.7,4.5,2.6,6.6c1.6,0.9,4-1.6,4-1.6s-1,3.2-3.6,3c-2.6-0.4-3.7-3.3-3.7-5.1
				C329.7,308.1,330.5,307.4,330.5,307.4L330.5,307.4z"/>
			<path class="st26" d="M334,305.5c1.5,0,2.8,2.1,2.8,3.4c-0.1,1.2-0.9,3.4-2,3.3c-1.1-0.1-2.5-1.7-2.6-2.9
				C332.2,308.2,332.5,305.5,334,305.5L334,305.5z"/>
		</g>
		<path class="st27" d="M261.7,197.4c0,0,31.2,0.8,42.8-0.4c10.7-1.1,30.5-6.1,30.5-6.1v59.3c0,0-15.7,6.3-35.4,8.2
			c-9.6,0.9-21.9-2.2-22.6-3.9C259,242.2,261.7,197.4,261.7,197.4L261.7,197.4z"/>
		<g>
			
				<linearGradient id="SVGID_00000057838251703246288740000014152671221708246690_" gradientUnits="userSpaceOnUse" x1="633.5001" y1="15.4368" x2="686.2994" y2="9.5286" gradientTransform="matrix(1 0 0 1 -341.858 212)">
				<stop  offset="0" style="stop-color:#EBFFFF"/>
				<stop  offset="1" style="stop-color:#EBFFFF;stop-opacity:0"/>
			</linearGradient>
			<path style="fill:url(#SVGID_00000057838251703246288740000014152671221708246690_);" d="M284,197.4c0,0,16.2,0,26.6-2.3
				c10.4-2.2,14.2-1.6,14.2-1.6l0.5,60.9c0,0-12.7,1.9-18,0.4c-8.1-2.3-15.4-11.7-19.1-20.1C284.5,226.3,284,197.4,284,197.4
				L284,197.4z"/>
			
				<linearGradient id="SVGID_00000007386750765963284550000013198208247594874269_" gradientUnits="userSpaceOnUse" x1="644.2423" y1="13.5666" x2="697.0416" y2="7.6584" gradientTransform="matrix(1 0 0 1 -341.858 212)">
				<stop  offset="0" style="stop-color:#EBFFFF;stop-opacity:0"/>
				<stop  offset="1" style="stop-color:#EBFFFF"/>
			</linearGradient>
			<path style="fill:url(#SVGID_00000007386750765963284550000013198208247594874269_);" d="M321.2,193.9c10.4-2.2,14.2-3,14.2-3
				s1,34.3-4.8,56c-1.3,5,0.5,5.9-8.9,7.5C312.2,256.1,310.9,196.1,321.2,193.9z"/>
		</g>
		<path class="st30" d="M334.9,166.4c0,0-11.1,7.6-61.4,8c-52.7,0.4-62.6-7.8-62.6-7.8"/>
	</g>
</g>
</svg>
