<?xml version="1.0" encoding="utf-8"?>
<!-- Generator: Adobe Illustrator 26.0.0, SVG Export Plug-In . SVG Version: 6.00 Build 0)  -->
<!DOCTYPE svg PUBLIC "-//W3C//DTD SVG 1.1//EN" "http://www.w3.org/Graphics/SVG/1.1/DTD/svg11.dtd" [
	<!ENTITY st0 "fill:#BDBDBD;stroke:url(#SVGID_1_);stroke-width:3.9832;stroke-linecap:round;stroke-miterlimit:10;">
	<!ENTITY st1 "fill:#DADADA;">
	<!ENTITY st2 "fill:#B1B1B1;">
	<!ENTITY st3 "fill:#EBEBEB;">
	
		<!ENTITY st4 "fill:#D57801;stroke:url(#SVGID_00000010995597917993549970000000659480829307369653_);stroke-width:1.8089;stroke-linecap:round;stroke-miterlimit:10;">
	<!ENTITY st5 "fill:#9C5801;">
	<!ENTITY st6 "fill:#FF9400;stroke:#522E00;stroke-width:2.0457;stroke-linecap:round;stroke-miterlimit:10;">
	<!ENTITY st7 "fill:#FF9400;stroke:#522E00;stroke-width:1.8489;stroke-linecap:round;stroke-miterlimit:10;">
	<!ENTITY st8 "fill:#C31003;stroke:#4F0601;stroke-width:1.4857;stroke-linecap:round;stroke-miterlimit:10;">
	<!ENTITY st9 "fill:#A80D03;">
	
		<!ENTITY st10 "fill:none;stroke:url(#SVGID_00000001656030257710697570000011840395566605463951_);stroke-width:2.08;stroke-linecap:round;stroke-miterlimit:10;">
	<!ENTITY st11 "fill:none;stroke:#131313;stroke-width:1.8489;stroke-linecap:round;stroke-miterlimit:10;">
	<!ENTITY st12 "fill:#F6F6F6;stroke:#131313;stroke-width:2.08;stroke-miterlimit:10;">
	<!ENTITY st13 "fill:#E1E1E1;">
	<!ENTITY st14 "fill:#FFFFFF;">
	<!ENTITY st15 "fill:url(#SVGID_00000019661084690765327370000002427802757560633531_);">
	<!ENTITY st16 "fill:#CFCFCF;">
	<!ENTITY st17 "fill:#E4E4E4;">
	<!ENTITY st18 "fill:#E98800;stroke:#8F5A00;stroke-width:3.9832;stroke-linecap:round;stroke-miterlimit:10;">
	<!ENTITY st19 "fill:#FFA300;">
	
		<!ENTITY st20 "fill:url(#SVGID_00000085223741477607758030000006366002002651894918_);stroke:#2EABA1;stroke-width:3.9832;stroke-linecap:round;stroke-miterlimit:10;">
	<!ENTITY st21 "fill:#FFB638;">
	<!ENTITY st22 "fill:#FFA62B;">
	<!ENTITY st23 "fill:#FF9500;stroke:#784600;stroke-width:1.5;stroke-miterlimit:10;">
	<!ENTITY st24 "fill:#C97500;">
	<!ENTITY st25 "fill:#FFB54D;">
	<!ENTITY st26 "fill:#B4FFFF;">
	<!ENTITY st27 "fill:url(#SVGID_00000018196367597024057520000002743035981714816435_);">
	<!ENTITY st28 "fill:url(#SVGID_00000126313057681374906480000011302353919562270098_);">
	<!ENTITY st29 "fill:none;stroke:#858585;stroke-width:1.5;stroke-linecap:round;stroke-miterlimit:10;">
]>
<svg version="1.1" id="图层_1" xmlns="http://www.w3.org/2000/svg" xmlns:xlink="http://www.w3.org/1999/xlink" x="0px" y="0px"
	 width="200px" height="360px" viewBox="0 0 200 360" style="enable-background:new 0 0 200 360;" xml:space="preserve">
<g id="home" transform="translate(-170.929,-45.71598)">
	<g>
		
			<linearGradient id="SVGID_1_" gradientUnits="userSpaceOnUse" x1="443.5129" y1="252.4653" x2="443.5129" y2="55.4142" gradientTransform="matrix(1 0 0 -1 -170.929 407.716)">
			<stop  offset="0" style="stop-color:#6B6B6B"/>
			<stop  offset="1" style="stop-color:#444444"/>
		</linearGradient>
		<path style="&st0;" d="M206.0009,164.0616c0,0-1.2485-8.877,67.9765-8.8106c66.9085,0.0642,65.0235,8.8106,65.0235,8.8106
			l0.1667,172.4943c0,0-18.4327,15.5233-65.1667,15.7431c-52.9198,0.2489-68-16.4098-68-16.4098L206.0009,164.0616z"/>
		<path style="&st1;" d="M336.9724,164.4972c0,3.8617-27.3912,9.4243-62.93,9.4243s-65.7674-5.5626-65.7674-9.4243
			c0-3.8617,28.8099-6.9922,64.3487-6.9922S336.9724,160.6355,336.9724,164.4972z"/>
		<path style="&st2;" d="M274.7509,157.6964c10.599-0.1074,26.4937,1.2079,36.6667,1.9659
			c9.173,0.6599,12.7767,2.1562,21.6667,3.6174c2.225,0.3663-42.718-4.119-61.25-4.0379
			c-19.899,0.1128-61.3823,4.1733-59.8333,3.7576c5.878-1.5486,15.748-3.4225,22.25-3.8978
			C248.9019,158.0315,260.2469,157.844,274.7509,157.6964L274.7509,157.6964z"/>
		<path style="&st3;" d="M273.1715,160.187c12.9194,0,24.6255,0.4815,33.1018,1.2592c8.4781,0.7796,13.7245,1.8535,13.7245,3.0401
			c0,1.1866-5.2465,2.2605-13.7245,3.0401c-8.4763,0.7777-20.1824,1.2592-33.1018,1.2592c-12.9196,0-24.6257-0.4815-33.102-1.2592
			c-8.4781-0.7796-13.7245-1.8535-13.7245-3.0401s5.2465-2.2605,13.7245-3.0401C248.5459,160.6686,260.252,160.187,273.1715,160.187
			z"/>
		<g>
			<g>
				<g>
					
						<linearGradient id="SVGID_00000116221294085504477900000012988053503139330745_" gradientUnits="userSpaceOnUse" x1="475.7643" y1="253.1556" x2="475.7643" y2="243.3843" gradientTransform="matrix(1 0 0 -1 -170.929 407.716)">
						<stop  offset="0" style="stop-color:#4F2D00"/>
						<stop  offset="1" style="stop-color:#522E00"/>
					</linearGradient>
					
						<path style="fill:#D57801;stroke:url(#SVGID_00000116221294085504477900000012988053503139330745_);stroke-width:1.8089;stroke-linecap:round;stroke-miterlimit:10;" d="
						M304.662,164.3317l-4.3885-0.3857l4.4144-9.3856l4.6741,9.3856L304.662,164.3317z"/>
					<path style="&st5;" d="M304.9471,157.3308c0.5656-0.1313,0.581,1.4111,0.9674,2.2244c0.3287,0.689,0.771,1.3231,1.1085,2.0077
						c0.2674,0.5488,1.0648,1.2424,0.6594,1.5599c-0.5776,0.5659-1.7718,0.4745-2.6254,0.2055
						c-0.4938-0.146-0.5395-0.7629-0.9551-1.2087c-0.3385-0.3484-1.119-0.3322-1.2307-0.7985
						c-0.1055-0.5584,0.2697-0.9908,0.4885-1.451C303.8125,158.9052,304.2352,157.3569,304.9471,157.3308L304.9471,157.3308z"/>
				</g>
				<path style="&st6;" d="M286.1661,123.2752c1.7468,0.1618,3.8274,1.0844,5.5515,3.6596
					c1.7253,2.5761,3.1869,6.3041,3.9756,10.5694c0.7886,4.2653,0.7567,8.2694,0.0667,11.2922
					c-0.6893,3.0214-2.0738,4.5724-3.8759,5.4027c-0.8504,0.3805-1.0666-1.7407-1.0116-2.8989
					c-0.301-4.6169,1.1014-9.2346,0.3016-13.802c-0.6813-3.8902-3.6358-6.9516-5.0456-10.5691
					C285.8329,125.7012,285.3474,123.2089,286.1661,123.2752L286.1661,123.2752z"/>
				<path style="&st7;" d="M292.789,155.903c0.3234-1.2161,2.4646-2.4189,4.0885-2.8188c2.8401-0.8958,5.9301-0.8467,8.9144-0.9547
					c2.6399-0.0996,5.1882-0.1748,7.5307,0.6707c2.1259,0.5237,4.5785,1.8461,5.4989,3.3195
					c0.3732,0.6064-1.6224,0.4504-2.5158,0.4467c-3.5734-0.0138-7.0231-0.6318-10.4993-0.6953
					c-3.3815,0.084-6.7737,0.7994-10.0546,0.7581C294.737,156.6161,292.5948,156.6272,292.789,155.903L292.789,155.903z"/>
				<path style="&st5;" d="M304.2264,153.9213c2.1147-0.0037,4.135,0.4387,6.3134,0.7015c2.2672,0.276,5.1836,0.6398,6.7811,1.0289
					c0.564,0.1403-1.5507,0.0449-2.3383,0c-3.0585-0.174-5.9215-0.5855-8.8856-0.5612c-2.9042,0.0225-5.684,0.6734-8.5115,0.8418
					c-0.8062-0.0112-2.5749-0.1366-2.3383-0.3741c0.3227-0.2984,2.2813-0.8166,3.4607-1.0289
					C300.5262,154.2328,302.3286,153.926,304.2264,153.9213z"/>
				<path style="&st5;" d="M292.4378,137.3575c0.3257,1.544-0.0672,3.1554-0.0238,4.7304c0.0782,2.8118-0.4165,6.747,0.3771,8.4142
					c0.381,0.8404,1.8307-3.379,1.9883-3.3643c0.1577,0.0158-0.2051,2.5143-0.7399,3.4917
					c-0.5679,1.0307-1.6567,2.5671-2.4457,2.5557c-0.591-0.0135-0.1909-1.5905-0.219-2.7975
					c-0.112-4.8266,0.7282-9.7852-0.127-14.5695c-0.5446-3.0601-2.7763-5.5807-3.9841-8.4696
					c-0.338-0.8089-1.1041-3.0456-0.7049-2.5342c1.1606,1.4943,2.5705,4.4203,3.6245,6.7527
					C291.0919,133.4223,292.0081,135.3332,292.4378,137.3575z"/>
				<path style="&st8;" d="M295.7883,153.0208c0.2488-1.0179,1.8919-2.0258,3.1377-2.3614c2.1791-0.7513,4.5493-0.712,6.8385-0.8041
					c2.025-0.0849,3.9798-0.1493,5.7761,0.5569c1.6304,0.437,3.5109,1.5423,4.2161,2.7748c0.2859,0.5073-1.2448,0.3779-1.93,0.3753
					c-2.7411-0.0095-5.3868-0.5247-8.0532-0.5758c-2.5939,0.0723-5.1964,0.673-7.713,0.6403
					C297.2821,153.6164,295.6389,153.627,295.7883,153.0208z"/>
				<path style="&st9;" d="M303.8169,151.644c1.559-0.0295,3.0972,0.1568,4.6962,0.3698c1.7897,0.2374,4.0986,0.5059,5.3618,0.8135
					c0.446,0.111-1.2262,0.0355-1.8489,0c-2.4184-0.1375-4.6822-0.4629-7.0258-0.4437c-2.2964,0.0178-4.4944,0.5325-6.73,0.6656
					c-0.6375-0.0089-2.0361-0.108-1.8489-0.2958c0.2551-0.2359,1.8008-0.6493,2.7363-0.8135
					C300.6589,151.6766,302.2497,151.5901,303.8169,151.644L303.8169,151.644z"/>
			</g>
			<g>
				
					<linearGradient id="SVGID_00000094599639562720554830000008916262268508632509_" gradientUnits="userSpaceOnUse" x1="481.6886" y1="273.2834" x2="481.6886" y2="241.0202" gradientTransform="matrix(1 0 0 -1 -170.929 407.716)">
					<stop  offset="0" style="stop-color:#131313"/>
					<stop  offset="1" style="stop-color:#131313"/>
				</linearGradient>
				
					<path style="fill:none;stroke:url(#SVGID_00000094599639562720554830000008916262268508632509_);stroke-width:2.08;stroke-linecap:round;stroke-miterlimit:10;" d="
					M320.347,166.6958l-5.6392-11.8676l-6.7022-4.9111l-0.1156-15.4845l6.0089,8.7822l-6.0089,3.2356l-6.24-3.0044l5.2-7.9734"/>
				<path style="&st11;" d="M307.9567,150.3181l10.2845,2.0223l-5.3156,15.08"/>
				<path style="&st12;" d="M308.2122,115.8381c2.8374,0,5.4085,1.1005,7.2704,2.8787c1.8618,1.7782,3.0141,4.2338,3.0141,6.9435
					c0,2.7098-1.1523,5.1654-3.0141,6.9436c-1.8619,1.7782-4.433,2.8787-7.2704,2.8787c-2.8373,0-5.4085-1.1005-7.2703-2.8787
					s-3.0142-4.2338-3.0142-6.9436c0-2.7097,1.1524-5.1653,3.0142-6.9435S305.3749,115.8381,308.2122,115.8381z"/>
				<path style="&st13;" d="M304.9979,132.0181c2.2203,0.2517,4.4679,0.3763,6.7023,0.3467c0.8262-0.0116,2.3566-0.6363,2.4844-0.52
					c0.1066,0.1571-1.11,1.0968-1.7911,1.3289c-1.5219,0.517-3.1258,0.9669-4.7378,0.9244c-1.4451-0.1162-2.8455-0.7513-4.16-1.3867
					c-0.6899-0.3341-1.9982-1.2625-1.6756-1.3866C302.14,131.1524,303.8858,131.8912,304.9979,132.0181z"/>
				<path style="&st14;" d="M308.2702,116.608c1.6367,0.0148,3.3273,0.5593,4.7378,1.3867
					c1.3261,0.7879,2.4234,2.0243,3.2355,3.3511c0.6192,1.182,0.89,2.6061,0.9245,3.929c0.0143,1.2339-0.0904,2.7389-0.9245,3.5822
					c-1.0025,1.0116-2.6987,1.1891-4.0444,1.3867c-1.9802,0.29-4.0387,0.4104-6.009,0.1155
					c-2.0252-0.3027-4.5073-0.3811-6.0089-1.8489c-1.1264-1.2066-1.1137-3.3673-0.6933-4.9689
					c0.5556-2.0636,1.9265-4.0273,3.5822-5.3156C304.4929,117.122,306.4647,116.7132,308.2702,116.608z"/>
			</g>
		</g>
		
			<linearGradient id="SVGID_00000028294063126353284530000013925149403408828324_" gradientUnits="userSpaceOnUse" x1="401.7023" y1="238.6468" x2="401.7023" y2="61.296" gradientTransform="matrix(1 0 0 -1 -170.929 407.716)">
			<stop  offset="0" style="stop-color:#B4B4B4"/>
			<stop  offset="1" style="stop-color:#A3A3A3"/>
		</linearGradient>
		<path style="fill:url(#SVGID_00000028294063126353284530000013925149403408828324_);" d="M227.2749,175.7718
			c10.3994,1.5124,17.9845,1.8519,17.9845,1.8519s-18.2004,69.1288-20.0134,98.6749c-1.302,21.248,26.7973,71.5401,26.7973,71.5401
			s-15.0988-2.5811-24.285-5.3786c-9.1862-2.7975-18.255-8.3775-18.255-8.3775l0.2428-165.0134
			C209.746,169.0691,216.8755,174.2595,227.2749,175.7718L227.2749,175.7718z"/>
		<path style="&st16;" d="M278.2459,177.7986c0,0,25.876-1.339,36.2517-2.7042c7.9989-1.0525,20.7483-4.7958,20.7483-4.7958
			s1.553,163.09-0.5,165.5c-4.177,4.865-12.034,5.894-18.5,8c-8.236,2.668-28.5,3.5-28.5,3.5s-10.287-19.769-12.5-27
			c-4.613-14.748-13.048-27.851-13.5-44c-0.312-12.773,1.1913-26.0388,3.986-42.458
			C268.5267,217.4214,278.2459,177.7985,278.2459,177.7986L278.2459,177.7986z"/>
		<path style="&st17;" d="M330.7459,177.2986c3.599,0.49,0.374,51.948,1,74c0.04,9.836,1.018,19.509,1,29.25
			c-0.001,15.194,0.863,32.245-0.5,48.25c-0.341,4.002-0.952,3.992-3,2c-8.221-7.956-16.793-17.132-22.5-27.5
			c-4.833-8.758-9.462-19.179-9.5-29.5c-0.033-9.161,0.298-67.013,3.5-76C308.7019,177.1415,327.1469,176.8085,330.7459,177.2986z"
			/>
		<path style="&st18;" d="M292.6918,282.5599c0,0,8.1646,0.2602,24.7667-2.3312c14.876-2.322,21.5-6.8283,21.5-6.8283l0.258,63.1432
			c0,0-5.423,4.651-21.108,9.7086c-9.0744,2.926-25.8167,5.1373-25.8167,5.1373L292.6918,282.5599z"/>
		<path style="&st19;" d="M336.4108,277.4881l-0.064,57.4066c0,0-9.3441,6.1827-17.3672,8.6683
			c-6.7843,2.3037-21.1413,4.8026-21.1413,4.8026l0.2118-63.5485c0,0,13.2577-0.7214,21.5756-2.3106
			C327.9435,280.9173,336.4108,277.4881,336.4108,277.4881L336.4108,277.4881z"/>
		
			<linearGradient id="SVGID_00000104704656782513770000000018310821017242811010_" gradientUnits="userSpaceOnUse" x1="402.63" y1="183.9812" x2="509.9799" y2="183.9812" gradientTransform="matrix(1 0 0 -1 -170.929 407.716)">
			<stop  offset="0" style="stop-color:#AAFCEC"/>
			<stop  offset="1" style="stop-color:#00FFFF"/>
		</linearGradient>
		
			<path style="fill:url(#SVGID_00000104704656782513770000000018310821017242811010_);stroke:#2EABA1;stroke-width:3.9832;stroke-linecap:round;stroke-miterlimit:10;" d="
			M302.3009,192.0838c21.9288-1.705,36.75-7.0244,36.75-7.0244l-0.0167,66.9992c0,0-11.9883,7.2604-38.9218,9.679
			c-32.9874,2.9623-68.4115-4.822-68.4115-4.822l14.25-64.6176C245.951,192.2981,280.3721,193.7888,302.3009,192.0838
			L302.3009,192.0838z"/>
		<path style="&st21;" d="M336.6267,277.6045l-0.3631,45.6899c0,0-0.9486,16.667-16.0717,17.2061
			c-5.675,0.2023-11.4362-0.5805-13.9248-7.9711c-5.5486-16.4782-2.7702-47.9346-2.7702-47.9346s13.9267-1.1296,22.4833-3.3368
			C329.3752,280.3824,336.6266,277.6045,336.6267,277.6045L336.6267,277.6045z"/>
		<path d="M307.9615,122.2098c0.8722-0.4892,1.6966-0.8714,2.3249-1.0943c0.6274-0.2224,1.0583-0.2841,1.1424-0.1341
			c0.0842,0.15-0.1931,0.4855-0.7099,0.905c-0.5178,0.42-1.2737,0.9243-2.1458,1.4136c-0.8722,0.4892-1.6966,0.8715-2.3249,1.0943
			c-0.6274,0.2224-1.0583,0.2841-1.1424,0.1341c-0.0842-0.15,0.1931-0.4855,0.7099-0.905
			C306.3335,123.2034,307.0894,122.6991,307.9615,122.2098z"/>
		<path d="M309.7509,122.6191c0.207,0,0.394,0.336,0.53,0.879c0.136,0.543,0.22,1.293,0.22,2.121c0,0.828-0.084,1.578-0.22,2.121
			c-0.136,0.543-0.323,0.879-0.53,0.879s-0.394-0.336-0.53-0.879c-0.136-0.543-0.22-1.293-0.22-2.121
			c0-0.828,0.084-1.578,0.22-2.121S309.5439,122.6191,309.7509,122.6191z"/>
		<path d="M316.394,122.1891c0.5125,0.205,0.9559,0.4427,1.2583,0.6616c0.3026,0.218,0.4642,0.4173,0.4129,0.5454
			c-0.0512,0.1281-0.3056,0.161-0.6752,0.1101c-0.3699-0.0499-0.8549-0.1836-1.3674-0.3886
			c-0.5125-0.2051-0.956-0.4427-1.2583-0.6617c-0.3027-0.218-0.4642-0.4172-0.413-0.5454c0.0513-0.1281,0.3057-0.161,0.6752-0.1101
			C315.3964,121.8504,315.8815,121.9841,316.394,122.1891z"/>
		<path d="M316.6259,122.8691c0.172,0,0.329,0.266,0.442,0.696c0.113,0.43,0.183,1.024,0.183,1.679s-0.07,1.249-0.183,1.679
			s-0.27,0.696-0.442,0.696s-0.329-0.266-0.442-0.696c-0.113-0.43-0.183-1.024-0.183-1.679c0-0.655,0.07-1.249,0.183-1.679
			S316.4539,122.8691,316.6259,122.8691z"/>
		<path style="&st22;" d="M336.8154,314.0323c0,2.6924-1.6123,4.875-3.6143,4.875c-2.002,0-4.8363-2.334-4.8363-5.0264
			s2.8342-4.7236,4.8363-4.7236S336.8154,311.3399,336.8154,314.0323z"/>
		<g>
			<path style="&st23;" d="M333.7003,303.9126c1.2811,0,2.441,0.6823,3.2809,1.7862c0.841,1.1024,1.361,2.6248,1.361,4.3062
				c0,1.6815-0.5199,3.2039-1.361,4.3063c-0.8399,1.1038-1.9998,1.7862-3.2809,1.7862s-2.4411-0.6823-3.281-1.7862
				c-0.8409-1.1024-1.3608-2.6248-1.3608-4.3063c0-1.6815,0.5199-3.2039,1.3608-4.3062
				C331.2592,304.595,332.4191,303.9126,333.7003,303.9126z"/>
			<path style="&st24;" d="M330.5327,307.4071c0,0-0.7085,4.5487,2.5614,6.6467c1.5999,0.8519,4.0091-1.5964,4.0091-1.5964
				s-1.0212,3.2227-3.5966,2.9639c-2.6087-0.3763-3.7162-3.2998-3.7402-5.0672
				C329.6959,308.0889,330.5328,307.4071,330.5327,307.4071L330.5327,307.4071z"/>
			<path style="&st25;" d="M334.0234,305.475c1.5486-0.0222,2.7735,2.1375,2.7893,3.3801
				c-0.0602,1.1991-0.8866,3.4149-2.0074,3.3346c-1.1208-0.0804-2.5386-1.7318-2.5692-2.9364
				C332.2086,308.1619,332.4749,305.4972,334.0234,305.475L334.0234,305.475z"/>
		</g>
		<path style="&st26;" d="M261.7294,197.4097c0,0,31.2382,0.7508,42.8108-0.4176c10.7277-1.0831,30.5245-6.1144,30.5245-6.1144
			v59.2556c0,0-15.705,6.3252-35.3864,8.2331c-9.553,0.9261-21.927-2.2366-22.6083-3.8969
			C258.9647,242.1537,261.7294,197.4097,261.7294,197.4097L261.7294,197.4097z"/>
		<g>
			
				<linearGradient id="SVGID_00000047030064375305315880000001446217988267812031_" gradientUnits="userSpaceOnUse" x1="462.5711" y1="180.2791" x2="515.3704" y2="186.1874" gradientTransform="matrix(1 0 0 -1 -170.929 407.716)">
				<stop  offset="0" style="stop-color:#EBFFFF"/>
				<stop  offset="1" style="stop-color:#EBFFFF;stop-opacity:0"/>
			</linearGradient>
			<path style="fill:url(#SVGID_00000047030064375305315880000001446217988267812031_);" d="M284.0453,197.4416
				c0,0,16.2007-0.0379,26.553-2.2667c10.3523-2.2288,14.1985-1.5837,14.1985-1.5837l0.4934,60.8698
				c0,0-12.6919,1.9359-18.0436,0.4352c-8.136-2.2815-15.4438-11.6875-19.112-20.1396
				C284.4663,226.3046,284.0453,197.4416,284.0453,197.4416L284.0453,197.4416z"/>
			
				<linearGradient id="SVGID_00000023282304388911618600000013467850513131853744_" gradientUnits="userSpaceOnUse" x1="473.3133" y1="182.1493" x2="526.1126" y2="188.0576" gradientTransform="matrix(1 0 0 -1 -170.929 407.716)">
				<stop  offset="0" style="stop-color:#EBFFFF;stop-opacity:0"/>
				<stop  offset="1" style="stop-color:#EBFFFF"/>
			</linearGradient>
			<path style="fill:url(#SVGID_00000023282304388911618600000013467850513131853744_);" d="M321.2429,193.8846
				c10.3523-2.2288,14.1985-3.0352,14.1985-3.0352s0.9561,34.3043-4.8289,56.0314c-1.3436,5.0461,0.4814,5.9299-8.8505,7.5316
				C312.2094,256.0519,310.8906,196.1134,321.2429,193.8846z"/>
		</g>
		<path style="&st29;" d="M334.9457,166.4226c0,0-11.0919,7.6185-61.4088,7.9986c-52.7457,0.3985-62.6271-7.796-62.6271-7.796"/>
	</g>
</g>
</svg>
