<?xml version="1.0" encoding="utf-8"?>
<!-- Generator: Adobe Illustrator 26.0.0, SVG Export Plug-In . SVG Version: 6.00 Build 0)  -->
<!DOCTYPE svg PUBLIC "-//W3C//DTD SVG 1.1//EN" "http://www.w3.org/Graphics/SVG/1.1/DTD/svg11.dtd" [
	
		<!ENTITY st0 "fill:#BB0000;stroke:url(#ID0.3210671157576144_00000133493910419106457750000018246664915108240783_);stroke-width:4;stroke-linecap:round;">
	<!ENTITY st1 "fill:#F9F9F9;stroke:#A2A2A2;stroke-width:4;stroke-linecap:round;">
	
		<!ENTITY st2 "fill:url(#ID0.5507918130606413_00000107582869609671870060000002100939681783007652_);stroke:url(#ID0.5507918130606413_00000152975873129019317710000018322305536713265293_);stroke-width:2;stroke-linecap:round;">
	
		<!ENTITY st3 "fill:url(#ID0.5507918130606413_00000183246793415606901610000010679796862458450592_);stroke:url(#ID0.5507918130606413_00000041269266700927884890000003247307931453992346_);stroke-width:2;stroke-linecap:round;">
	
		<!ENTITY st4 "fill:url(#ID0.5507918130606413_00000113324620177120107320000010577429386982291080_);stroke:url(#ID0.5507918130606413_00000023246641478104975130000001432953274598305416_);stroke-width:2;stroke-linecap:round;">
	
		<!ENTITY st5 "fill:url(#ID0.5507918130606413_00000088822476818493679960000010914740431938246282_);stroke:url(#ID0.5507918130606413_00000042007965962073245620000008175069620401794979_);stroke-width:2;stroke-linecap:round;">
	
		<!ENTITY st6 "fill:#B7B7B7;stroke:url(#ID0.5507918130606413_00000024722338544601769980000003167856768742135468_);stroke-width:2;stroke-linecap:round;">
	<!ENTITY st7 "fill:#9D0000;">
	<!ENTITY st8 "fill:#FFFFFF;stroke:#B2B2B2;stroke-width:4;stroke-linecap:round;">
	
		<!ENTITY st9 "fill:url(#ID0.5507918130606413_00000114038407917373434240000011558243932984274344_);stroke:url(#ID0.5507918130606413_00000175315972840485192100000002674611335967676840_);stroke-width:2;stroke-linecap:round;">
	
		<!ENTITY st10 "fill:#E1E1E1;stroke:url(#ID0.5507918130606413_00000140723709948912332250000000520279013001030042_);stroke-width:2;stroke-linecap:round;">
	
		<!ENTITY st11 "fill:url(#ID0.5507918130606413_00000005265222883945123310000007214159928956063670_);stroke:url(#ID0.5507918130606413_00000118359729471239758430000001296339474352477570_);stroke-width:2;stroke-linecap:round;">
	
		<!ENTITY st12 "fill:url(#ID0.5507918130606413_00000049907339979005999130000008563366176271009410_);stroke:url(#ID0.5507918130606413_00000061453118648246497240000005324127270702188169_);stroke-width:2;stroke-linecap:round;">
	
		<!ENTITY st13 "fill:url(#ID0.5507918130606413_00000045617753357171477080000010136993851834905529_);stroke:url(#ID0.5507918130606413_00000152969745483759179740000008089209139592859548_);stroke-width:2;stroke-linecap:round;">
	<!ENTITY st14 "fill:#BD6A01;stroke:#663B00;stroke-width:5;stroke-linecap:round;">
	<!ENTITY st15 "fill:#E4E401;stroke:#767602;stroke-width:6;stroke-linecap:round;">
	<!ENTITY st16 "fill:#F6F601;">
	<!ENTITY st17 "fill:#FFFF05;">
	<!ENTITY st18 "fill:#FFFFFF;stroke:#E4E401;stroke-width:2;stroke-linecap:round;">
	<!ENTITY st19 "fill:#935301;">
	<!ENTITY st20 "fill:#CCCC00;">
	<!ENTITY st21 "fill:#FFFFCC;">
	<!ENTITY st22 "fill:#FFFFFF;">
	<!ENTITY st23 "fill:#EEEDF0;">
	<!ENTITY st24 "fill:#4C4B4C;stroke:#2B2B2B;stroke-width:1.6879;stroke-linecap:round;">
	<!ENTITY st25 "fill:#767602;">
	<!ENTITY st26 "fill:#3D3D3D;">
]>
<svg version="1.1" id="图层_1" xmlns="http://www.w3.org/2000/svg" xmlns:xlink="http://www.w3.org/1999/xlink" x="0px" y="0px"
	 width="150px" height="150px" viewBox="0 0 150 150" style="enable-background:new 0 0 150 150;" xml:space="preserve">
<g id="ID0.6828211536630988">
	
		<linearGradient id="ID0.3210671157576144_00000109018783642959755860000013623561944977220785_" gradientUnits="userSpaceOnUse" x1="26.1507" y1="22.9233" x2="26.1507" y2="23.9233" gradientTransform="matrix(36.75 0 0 24.75 -869 -482)">
		<stop  offset="0" style="stop-color:#660000"/>
		<stop  offset="1" style="stop-color:#660000"/>
	</linearGradient>
	
		<path id="ID0.3210671157576144" style="fill:#BB0000;stroke:url(#ID0.3210671157576144_00000109018783642959755860000013623561944977220785_);stroke-width:4;stroke-linecap:round;" d="
		M114.01,99.1l1.25-13.25l-17.25-0.5L87.76,91.6l-7.5,9.25l-1.75,9.25l12-2.75l6.75-5l6.5-4.25h6.75L114.01,99.1z"/>
	<g id="ID0.25396409491077065">
		<path id="ID0.6000229325145483" style="&st1;" d="M111.01,67.6l-86.5,5.25l8.25,14.75l7-10.5l9.25,12l6.75-13.5l10.25,14.5
			l6-13.25L83.26,91.1l6.5-16.25l11.25,16.75l9.5-23.5L111.01,67.6z"/>
		
			<linearGradient id="ID0.5507918130606413_00000107590337268498257050000003443864255320225928_" gradientUnits="userSpaceOnUse" x1="101.807" y1="69.5006" x2="101.807" y2="81.8506" gradientTransform="matrix(1 0 0 1 0 2)">
			<stop  offset="0" style="stop-color:#E4E4E4"/>
			<stop  offset="1" style="stop-color:#E4E4E4"/>
		</linearGradient>
		
			<linearGradient id="ID0.5507918130606413_00000012450613008968147190000009225180676860819344_" gradientUnits="userSpaceOnUse" x1="24.5411" y1="21.8421" x2="24.5411" y2="22.8422" gradientTransform="matrix(6.9 0 0 12.35 -73.05 -198.2503)">
			<stop  offset="0" style="stop-color:#E4E4E4"/>
			<stop  offset="1" style="stop-color:#E4E4E4"/>
		</linearGradient>
		
			<path id="ID0.5507918130606413" style="fill:url(#ID0.5507918130606413_00000107590337268498257050000003443864255320225928_);stroke:url(#ID0.5507918130606413_00000012450613008968147190000009225180676860819344_);stroke-width:2;stroke-linecap:round;" d="
			M98.36,72l6.9-0.5l-5,12.35l1.9-8.1L98.36,72z"/>
		
			<linearGradient id="ID0.5507918130606413_00000127744499191332300470000009661739953983765914_" gradientUnits="userSpaceOnUse" x1="83.157" y1="70.7006" x2="83.157" y2="81.6506" gradientTransform="matrix(1 0 0 1 0 2)">
			<stop  offset="0" style="stop-color:#E4E4E4"/>
			<stop  offset="1" style="stop-color:#E4E4E4"/>
		</linearGradient>
		
			<linearGradient id="ID0.5507918130606413_00000152962267439953732260000009417553115308756907_" gradientUnits="userSpaceOnUse" x1="24.6553" y1="21.5663" x2="24.6553" y2="22.5663" gradientTransform="matrix(6.9 0 0 10.95 -91.6999 -163.4494)">
			<stop  offset="0" style="stop-color:#E4E4E4"/>
			<stop  offset="1" style="stop-color:#E4E4E4"/>
		</linearGradient>
		
			<path id="ID0.5507918130606413_00000096030387203846025800000012002110125267866300_" style="fill:url(#ID0.5507918130606413_00000127744499191332300470000009661739953983765914_);stroke:url(#ID0.5507918130606413_00000152962267439953732260000009417553115308756907_);stroke-width:2;stroke-linecap:round;" d="
			M79.71,73.2l6.9-0.5l-4.45,10.95l1.35-6.7L79.71,73.2z"/>
		
			<linearGradient id="ID0.5507918130606413_00000053509747795389239820000010738764000567000200_" gradientUnits="userSpaceOnUse" x1="65.557" y1="71.9506" x2="65.557" y2="80.9506" gradientTransform="matrix(1 0 0 1 0 2)">
			<stop  offset="0" style="stop-color:#E4E4E4"/>
			<stop  offset="1" style="stop-color:#E4E4E4"/>
		</linearGradient>
		
			<linearGradient id="ID0.5507918130606413_00000063603839988148221270000000391558309089791908_" gradientUnits="userSpaceOnUse" x1="24.9682" y1="21.039" x2="24.9682" y2="22.039" gradientTransform="matrix(6.9 0 0 9 -109.3 -115.4)">
			<stop  offset="0" style="stop-color:#E4E4E4"/>
			<stop  offset="1" style="stop-color:#E4E4E4"/>
		</linearGradient>
		
			<path id="ID0.5507918130606413_00000061443981813771171100000008109835922885793443_" style="fill:url(#ID0.5507918130606413_00000053509747795389239820000010738764000567000200_);stroke:url(#ID0.5507918130606413_00000063603839988148221270000000391558309089791908_);stroke-width:2;stroke-linecap:round;" d="
			M62.11,74.45l6.9-0.5l-3.5,9l0.15-4.25L62.11,74.45z"/>
		
			<linearGradient id="ID0.5507918130606413_00000144327390267479393890000014735228838681511585_" gradientUnits="userSpaceOnUse" x1="49.057" y1="72.5006" x2="49.057" y2="80.4506" gradientTransform="matrix(1 0 0 1 0 2)">
			<stop  offset="0" style="stop-color:#E4E4E4"/>
			<stop  offset="1" style="stop-color:#E4E4E4"/>
		</linearGradient>
		
			<linearGradient id="ID0.5507918130606413_00000169527318585948862450000016374804305478832522_" gradientUnits="userSpaceOnUse" x1="25.1461" y1="20.6479" x2="25.1461" y2="21.6479" gradientTransform="matrix(6.9 0 0 7.95 -125.8 -89.6504)">
			<stop  offset="0" style="stop-color:#E4E4E4"/>
			<stop  offset="1" style="stop-color:#E4E4E4"/>
		</linearGradient>
		
			<path id="ID0.5507918130606413_00000141430502269656999830000005251906496613535914_" style="fill:url(#ID0.5507918130606413_00000144327390267479393890000014735228838681511585_);stroke:url(#ID0.5507918130606413_00000169527318585948862450000016374804305478832522_);stroke-width:2;stroke-linecap:round;" d="
			M45.61,75l6.9-0.5l-4.1,7.95l0.75-3.2L45.61,75z"/>
		
			<linearGradient id="ID0.5507918130606413_00000033339218175673534360000013285815533205116059_" gradientUnits="userSpaceOnUse" x1="24.5532" y1="19.2412" x2="24.5532" y2="20.2412" gradientTransform="matrix(4.2 0 0 5.6 -68.8 -32.1002)">
			<stop  offset="0" style="stop-color:#E4E4E4"/>
			<stop  offset="1" style="stop-color:#E4E4E4"/>
		</linearGradient>
		
			<path id="ID0.5507918130606413_00000057851103359272995240000016328918233640515999_" style="fill:#B7B7B7;stroke:url(#ID0.5507918130606413_00000033339218175673534360000013285815533205116059_);stroke-width:2;stroke-linecap:round;" d="
			M32.41,75.65h4.2l-3.35,5.6L33.91,78L32.41,75.65z"/>
	</g>
	<path id="ID0.17633428564295173" style="&st7;" d="M104.76,92.35c1.51-0.98,3.4-3.52,4.5-3c0.93,0.45,0.25,3.86-1,5
		c-1.57,1.43-4.36,0.28-6.25,1.25c-4.29,2.2-7.82,6.16-12.25,8.5c-2.26,1.05-6.83,3.06-7.5,1.5c-0.84-2,3.58-8.19,4.75-9
		c0.83-0.57-2.19,5.78-0.5,5.75c3.81,0.16,7.86-3.45,11.5-5.5C100.36,95.53,102.6,93.76,104.76,92.35z"/>
	<g id="ID0.25396409491077065_00000154403114283947165430000010162406560769635977_">
		<path id="ID0.6000229325145483_00000080171037531191674790000007762608861261887143_" style="&st8;" d="M109.56,127.7l-86.5-5.25
			l8.25-14.75l7,10.5l9.25-12l6.75,13.5l10.25-14.5l6,13.25l11.25-14.25l6.5,16.25l11.25-16.75l9.5,23.5L109.56,127.7z"/>
		
			<linearGradient id="ID0.5507918130606413_00000104690805859133389470000001139706440689952185_" gradientUnits="userSpaceOnUse" x1="100.357" y1="121.8006" x2="100.357" y2="109.4506" gradientTransform="matrix(1 0 0 1 0 2)">
			<stop  offset="0" style="stop-color:#E1E1E1"/>
			<stop  offset="1" style="stop-color:#E1E1E1"/>
		</linearGradient>
		
			<linearGradient id="ID0.5507918130606413_00000162328226650791448260000004654287397580799887_" gradientUnits="userSpaceOnUse" x1="24.5411" y1="21.8421" x2="24.5411" y2="22.8422" gradientTransform="matrix(6.9 0 0 12.35 -74.5 -158.3002)">
			<stop  offset="0" style="stop-color:#E1E1E1"/>
			<stop  offset="1" style="stop-color:#E1E1E1"/>
		</linearGradient>
		
			<path id="ID0.5507918130606413_00000062153033066512742450000013340996191778896572_" style="fill:url(#ID0.5507918130606413_00000104690805859133389470000001139706440689952185_);stroke:url(#ID0.5507918130606413_00000162328226650791448260000004654287397580799887_);stroke-width:2;stroke-linecap:round;" d="
			M96.91,123.3l6.9,0.5l-5-12.35l1.9,8.1L96.91,123.3z"/>
		
			<linearGradient id="ID0.5507918130606413_00000061442438744000319970000009357969123909945535_" gradientUnits="userSpaceOnUse" x1="24.6553" y1="21.5663" x2="24.6553" y2="22.5663" gradientTransform="matrix(6.9 0 0 10.95 -93.15 -124.5003)">
			<stop  offset="0" style="stop-color:#E1E1E1"/>
			<stop  offset="1" style="stop-color:#E1E1E1"/>
		</linearGradient>
		
			<path id="ID0.5507918130606413_00000003071866155130107270000000190173204694918288_" style="fill:#E1E1E1;stroke:url(#ID0.5507918130606413_00000061442438744000319970000009357969123909945535_);stroke-width:2;stroke-linecap:round;" d="
			M78.26,122.1l6.9,0.5l-4.45-10.95l1.35,6.7L78.26,122.1z"/>
		
			<linearGradient id="ID0.5507918130606413_00000111872446873740950980000005058702579131146368_" gradientUnits="userSpaceOnUse" x1="64.107" y1="119.3506" x2="64.107" y2="110.3506" gradientTransform="matrix(1 0 0 1 0 2)">
			<stop  offset="0" style="stop-color:#E1E1E1"/>
			<stop  offset="1" style="stop-color:#E1E1E1"/>
		</linearGradient>
		
			<linearGradient id="ID0.5507918130606413_00000075856673559700633350000009840535093996142725_" gradientUnits="userSpaceOnUse" x1="24.9682" y1="21.039" x2="24.9682" y2="22.039" gradientTransform="matrix(6.9 0 0 9 -110.7499 -77)">
			<stop  offset="0" style="stop-color:#E1E1E1"/>
			<stop  offset="1" style="stop-color:#E1E1E1"/>
		</linearGradient>
		
			<path id="ID0.5507918130606413_00000105426565729489823740000012097882795921446830_" style="fill:url(#ID0.5507918130606413_00000111872446873740950980000005058702579131146368_);stroke:url(#ID0.5507918130606413_00000075856673559700633350000009840535093996142725_);stroke-width:2;stroke-linecap:round;" d="
			M60.66,120.85l6.9,0.5l-3.5-9l0.15,4.25L60.66,120.85z"/>
		
			<linearGradient id="ID0.5507918130606413_00000139272612950458660570000008373886707496917122_" gradientUnits="userSpaceOnUse" x1="47.607" y1="118.8006" x2="47.607" y2="110.8506" gradientTransform="matrix(1 0 0 1 0 2)">
			<stop  offset="0" style="stop-color:#E1E1E1"/>
			<stop  offset="1" style="stop-color:#E1E1E1"/>
		</linearGradient>
		
			<linearGradient id="ID0.5507918130606413_00000115476469103502480100000013281477689954284929_" gradientUnits="userSpaceOnUse" x1="25.1461" y1="20.6479" x2="25.1461" y2="21.6479" gradientTransform="matrix(6.9 0 0 7.95 -127.25 -51.3004)">
			<stop  offset="0" style="stop-color:#E1E1E1"/>
			<stop  offset="1" style="stop-color:#E1E1E1"/>
		</linearGradient>
		
			<path id="ID0.5507918130606413_00000003104629704499957480000009457152506161817997_" style="fill:url(#ID0.5507918130606413_00000139272612950458660570000008373886707496917122_);stroke:url(#ID0.5507918130606413_00000115476469103502480100000013281477689954284929_);stroke-width:2;stroke-linecap:round;" d="
			M44.16,120.3l6.9,0.5l-4.1-7.95l0.75,3.2L44.16,120.3z"/>
		
			<linearGradient id="ID0.5507918130606413_00000145767963628248920840000010062596759870929794_" gradientUnits="userSpaceOnUse" x1="33.057" y1="117.6506" x2="33.057" y2="112.0506" gradientTransform="matrix(1 0 0 1 0 2)">
			<stop  offset="0" style="stop-color:#E1E1E1"/>
			<stop  offset="1" style="stop-color:#E1E1E1"/>
		</linearGradient>
		
			<linearGradient id="ID0.5507918130606413_00000001624771383811760160000006373442360212122283_" gradientUnits="userSpaceOnUse" x1="24.5532" y1="19.2412" x2="24.5532" y2="20.2412" gradientTransform="matrix(4.2 0 0 5.6 -70.25 6.3008)">
			<stop  offset="0" style="stop-color:#E1E1E1"/>
			<stop  offset="1" style="stop-color:#E1E1E1"/>
		</linearGradient>
		
			<path id="ID0.5507918130606413_00000040547107838460787580000004194135730653984402_" style="fill:url(#ID0.5507918130606413_00000145767963628248920840000010062596759870929794_);stroke:url(#ID0.5507918130606413_00000001624771383811760160000006373442360212122283_);stroke-width:2;stroke-linecap:round;" d="
			M30.96,119.65h4.2l-3.35-5.6l0.65,3.25L30.96,119.65z"/>
	</g>
	<path id="ID0.10930385952815413" style="&st14;" d="M76.01,3.85c-0.55,6.58-8,17.57-5.25,18.75c2.96,1.44,10.41-10.87,17.25-13.25
		c6.6-2.3,14.35-1.16,21.5,0c2.31,0.4,7.22,2.47,5.75,4.5c-3.64,4.98-19.14,7.31-16.5,9.5c3.7,3.07,20.91-1.72,30,2.5
		c6.04,2.8,8.32,10.76,11,17c0.72,1.46,0.26,4.77-1.5,4.5c-7.03-1.08-12.99-7.36-20.25-8c-12.26-0.9-24.43,3.8-36.88,3.5
		c-14.54-0.35-30.47,1.62-43.38-5.25c-4.59-2.54,2.05-10.94,5.25-15.25c4.2-5.57,8.75-9.11,14-12.5c4.63-2.98,10.25-4.78,15.75-6.5
		C73.98,2.95,76.14,2.21,76.01,3.85z"/>
	<path id="ID0.7495024777017534" style="&st15;" d="M113.01,94.6c0.06,6.19,0.06,12.58-1.75,18.5c-1.25,4.07-4.14,7.79-7.25,10.75
		c-1.56,1.36-3.92,1.14-6,1.5c-2.72,0.46-5.49,0.65-8.25,0.75c-4.49,0.15-9.01,0.13-13.5,0c-4.33-0.12-8.68-0.43-13-0.75
		c-14.08-1.13-21.84-2.14-32.75-2.5c-2.86-0.1-6.87-1.23-8.75,1c-1.57,2.2,0.86,5.42,1.75,8c0.96,2.76,1.14,6.51,3.75,7.5
		c5.53,2.48,11.99,1.59,18,1.75c10.74,0.28,21.51,0.06,32.25,0c10-0.06,20.03,0.11,30-0.5c3.55-0.22,7-1.18,10.5-2
		c1.36-0.32,2.74-0.66,4-1.25c1.26-0.59,2.96-0.98,3.5-2.25c1.92-4.55,2.91-9.07,3-13.75c-2.96-31.88-2.97-31.5-4.5-39.75
		c-2.73-13.6-3.2-28.16-9.5-40.5c-2.62-5.12-9.95-6.28-15.5-8c-5.12-1.59-10.57-1.26-16-1.75c-2.74-0.25-5.5-0.42-8.25-0.5
		c-2.83-0.08-5.68-0.17-8.5,0c-2.76,0.17-5.51,0.58-8.25,1c-2.68,0.41-5.34,1-8,1.5s-5.35,0.94-8,1.5
		c-5.5,1.41-8.08,2.15-10.25,3.75c-2.86,2.9-4.62,5.33-6,7.5c-1.44,2.26-2.66,4.7-3.5,7.25c-0.7,4.63-1.04,5.98-1,8
		c0.05,2.67-0.75,5.95,1,8c1.71,2.01,5.06,2,7.75,2.25c10.34-0.48,12.78-0.82,19-1.25c13.65-0.95,27.32-2.57,41-2.5
		c7.02,0.03,16.02-1.9,20.5,3.5C115.65,77.15,112.94,86.59,113.01,94.6z"/>
	<path id="ID0.04258432425558567" style="&st16;" d="M56.01,37.35c6.72-1.06,13.72-1.26,20.5-0.5c5.38,0.61,10.89,2.01,16,4
		c3.52,1.73,6.82,4.1,9.5,7c5.58,6.04,11.55,12.31,14.5,20c2.91,8.77,2.25,18.45,2.5,27.75c0.2,7.43,1.42,15.53-1.75,22.25
		c-2.86,6.06-8.4,12.19-15,13.75c-15.76,3.72-32.84,1.41-49.25,1.5c-7.83,0.04-15.76,0.53-23.25-1.25c-2.01-0.36-4.63-4.2-2.25-4.5
		c9.5-1.21,19.11,0.81,28.75,1.25c12.65,0.58,25.33,3.1,38,1.5c6.8-0.86,15.69-2.74,18.5-9c5.96-12.78,4.64-27.85,5-42
		c0.09-3.54-1.39-7-3.75-9.5c-3.12-3.3-7.35-6.19-12-6.5c-19.21-1.24-38.58,1.29-57.5,2c-5.66,0.21-12.16,3.69-17,0.75
		c-3.26-1.99-1.2-7.8,0-11.5c1.49-4.22,3.8-8.82,7.75-11.25C41.36,39.35,48.88,38.38,56.01,37.35z"/>
	<path id="ID0.1143147456459701" style="&st17;" d="M50.11,41.35c3.96-0.56,8.16-0.88,12.25-1.15c4.27-0.28,15.27-2.45,13-0.5
		c-5.42,4.64-19.95,8.01-28.85,13.85c-3.54,2.34-4.04,7.92-7.65,10.15c-2.06,1.28-5.53,0.91-7.25-0.75
		c-2.02-1.95-2.56-5.59-1.75-8.25c1.51-4.34,4.3-8.61,8.15-11.1C41.48,41.36,46.05,41.93,50.11,41.35z"/>
	<path id="ID0.41096594789996743" style="&st18;" d="M44.06,53.6c4.4-1.94,7.56-5.8,11.35-8.6c1-0.74,1.5-2.23,1.35-0.8
		c-0.6,5.73,0.64,12.41-2.95,17.05c-2.51,3.24-8.05,1.72-12.12,2.1c-2.84,0.27-6.66,1.78-8.77-0.25c-2.24-2.16-1.86-6.2-1.35-9.25
		c0.23-0.99,2.06,0.27,3,0.25C37.72,54.05,41.16,54.88,44.06,53.6z"/>
	<path id="ID0.2626534756273031" style="&st19;" d="M114.41,35.75c0.92-1.56,8.21-2.28,11.35-4.9c0.93-0.77-1.95-3.25-1.25-3.4
		c1.04-0.22,3.6,1.21,4.9,2.5c1.7,1.68,2.93,3.85,4,6c1.11,2.27,3.68,6.03,2.6,7c-1.17,1.1-4.79-1.79-7.1-2.85
		c-2.23-1.02-4.29-2.54-6.65-3.25C119.77,36.1,113.74,36.91,114.41,35.75z"/>
	<path id="ID0.3917524442076683" style="&st19;" d="M96.01,11.1c2.51-0.15,4.93,0.3,7.5,0.75c2.35,0.41,7.34,0.5,7,1.5
		c-0.35,1.05-5.53,2.28-8.25,3.5c-2.66,1.2-8.03,3.97-8.25,3.75c-0.22-0.22,4.82-3.42,6.5-5.75c0.44-0.62-0.08-1.33-0.75-1.5
		c-3.27-0.67-9.11-0.3-9.75-0.75C89.39,12.17,94.13,11.21,96.01,11.1z"/>
	<path id="ID0.3149766572751105" style="&st19;" d="M65.01,10.6c1.41-1.64,5.42-3.77,6-2.5c0.78,1.72-2.46,5.46-3.5,8.25
		c-0.69,1.85-0.34,4.27-1.5,6c-0.6,0.68-1.98,0.17-2.88,0c-0.78-0.15-2.12-0.52-2.03-1.25c0.13-1.05,1.98-1.19,2.66-2
		c1.16-1.74,2.4-3.55,2.75-5.5C66.7,12.5,64.27,11.46,65.01,10.6z"/>
	<path id="ID0.5907401195727289" style="&st20;" d="M110.76,43.85c0.14-0.35,4.76,11.28,5.75,17.25c3.38,20.21,7.54,40.81,7.5,61.5
		c-0.05,5.06-0.57,10.5-7.75,11.5c-28.69,3.99-86.83,1.62-87,1.25c-0.18-0.38,60.74,8.71,84.25-6.75c14.48-9.55,4.58-34.45,5-51.75
		c0.1-4.33-2.64-7.46-3.5-11.25C113.37,58.41,110.61,44.21,110.76,43.85z"/>
	<path id="ID0.9626047280617058" style="&st21;" d="M110.51,51.1c0.34-0.08,3.93,7.46,5.01,11.49c2.61,9.76,4.96,19.34,6.39,29.01
		c1.21,9.38,2.04,18.92,1.5,28c-0.21,3.12-2.83,9.44-4,8.5c-1.38-1.07-0.35-8.67-0.5-13c-0.37-10.65,0.17-21.9-1-33
		c-0.67-5.97-3.06-11.65-4.5-18C112.42,59.78,110.17,51.19,110.51,51.1z"/>
	<path id="ID0.41096594789996743_00000073710596613106974060000002298378880590478486_" style="&st22;" d="M41.76,52.85
		c3.82-0.87,7.73-1.9,11-4.2c1.85-1.29,3.44-7.47,3.5-5.8c0.13,4.52,0.62,13.57-3,18.4c-2.46,3.28-8.06,1.63-12.12,2.1
		c-2.6,0.3-5.4,0.88-7.97,0.15c-0.86-0.19-0.86-1.62-0.9-2.5c-0.12-2.58-1.47-6.01,0.5-7.65C35.02,51.36,38.81,53.53,41.76,52.85z"
		/>
	<path id="ID0.38268710393458605" style="&st23;" d="M50.21,51.75c2.74-1.27,3.75-5.99,5.85-7c0.94-0.45,0.46,2.66,0.5,4
		c0.03,1.12,0.05,2.26-0.2,3.35c-0.66,2.88-0.22,6.61-2.4,8.65c-2.28,2.01-8.7,1.92-9,1.7s4.96-1.72,6.6-3.5
		c1.4-1.53,3.25-4.74,2.15-5.85c-1.26-1.26-4.66,0.98-7,1c-4.35,0.15-9.1-0.31-13-0.5c-0.98-0.05,2.02,0.28,3.15,0.15
		C41.32,53.26,46.13,53.64,50.21,51.75z"/>
	<path id="ID0.23572875745594501" style="&st24;" d="M42.03,53.25c0.47,0,0.91,0.54,1.22,1.41c0.31,0.87,0.5,2.08,0.5,3.4
		s-0.19,2.53-0.5,3.4c-0.31,0.87-0.74,1.41-1.22,1.41c-0.47,0-0.98-0.61-1.22-1.41c-0.29-1-0.45-2.23-0.5-3.4
		c0.06-1.17,0.22-2.39,0.5-3.4C41.05,53.87,41.56,53.25,42.03,53.25z"/>
	<path id="ID0.04169991938397288" style="&st25;" d="M45.61,51.4c2.4-0.89,4.33-3.04,6.37-4.57c1.85-1.49,5.33-6.8,5.38-6.18
		c0.04,0.64-2.41,7.18-5,9.75c-1.95,1.94-4.9,2.5-7.5,3.05c-3.44,0.58-7,0.47-10.37,0.27c-1.44-0.09-4.36-1.11-4.13-1.27
		c0.32-0.37,3.9-0.22,5.75-0.3C39.27,52.03,42.54,52.34,45.61,51.4z"/>
	<path id="ID0.04169991938397288_00000057135802308920452220000018143274037505395627_" style="&st25;" d="M45.76,62.1
		c2.27-0.38,4.47-0.58,6.6-1.25c1.83-0.58,5.21-2.53,5.3-2.2c0.02,0.25-2.88,3.42-4.9,4.35c-2.37,1.09-5.17,0.92-7.75,1.15
		c-3.44,0.3-7,0.47-10.37,0.27c-1.44-0.09-4.36-1.11-4.13-1.27c0.32-0.37,3.9-0.22,5.75-0.3C39.42,62.73,42.63,62.61,45.76,62.1z"/>
	<path id="ID0.8228673967532814" style="&st26;" d="M42.06,58.2c0.19,0,0.38,0.19,0.47,0.39c0.13,0.28,0.13,0.57,0.13,0.94
		s-0.03,0.64-0.13,0.94c-0.13,0.38-0.3,1.04-0.52,1.04c-0.21-0.01-0.31-0.72-0.4-1.1c-0.05-0.29-0.08-0.6-0.1-0.9
		c-0.01-0.29-0.12-0.62,0-0.9C41.59,58.4,41.82,58.21,42.06,58.2z"/>
</g>
</svg>
