<?xml version="1.0" encoding="utf-8"?>
<!-- Generator: Adobe Illustrator 26.0.0, SVG Export Plug-In . SVG Version: 6.00 Build 0)  -->
<!DOCTYPE svg PUBLIC "-//W3C//DTD SVG 1.1//EN" "http://www.w3.org/Graphics/SVG/1.1/DTD/svg11.dtd" [
	
		<!ENTITY st0 "fill:#BB0000;stroke:url(#ID0.3210671157576144_00000172399860909779359430000001656521915570359482_);stroke-width:4;stroke-linecap:round;">
	<!ENTITY st1 "fill:#F9F9F9;stroke:#A2A2A2;stroke-width:4;stroke-linecap:round;">
	<!ENTITY st2 "fill:#FFFFFF;stroke:#B2B2B2;stroke-width:4;stroke-linecap:round;">
	<!ENTITY st3 "fill:#BD6A01;stroke:#663B00;stroke-width:5;stroke-linecap:round;">
	<!ENTITY st4 "fill:#E4E401;stroke:#767602;stroke-width:6;stroke-linecap:round;">
]>
<svg version="1.1" id="图层_1" xmlns="http://www.w3.org/2000/svg" xmlns:xlink="http://www.w3.org/1999/xlink" x="0px" y="0px"
	 width="150px" height="150px" viewBox="0 0 150 150" style="enable-background:new 0 0 150 150;" xml:space="preserve">
<g id="ID0.6828211536630988">
	
		<linearGradient id="ID0.3210671157576144_00000043455241645413230070000014001293057925888900_" gradientUnits="userSpaceOnUse" x1="26.1508" y1="127.0767" x2="26.1508" y2="126.0767" gradientTransform="matrix(36.75 0 0 -24.75 -869 3230.5)">
		<stop  offset="0" style="stop-color:#660000"/>
		<stop  offset="1" style="stop-color:#660000"/>
	</linearGradient>
	
		<path id="ID0.3210671157576144" style="fill:#BB0000;stroke:url(#ID0.3210671157576144_00000043455241645413230070000014001293057925888900_);stroke-width:4;stroke-linecap:round;" d="
		M114,99.1l1.2-13.2L98,85.3l-10.2,6.2l-7.5,9.2l-1.8,9.2l12-2.8l6.8-5l6.5-4.2h6.8L114,99.1z"/>
	<g id="ID0.25396409491077065">
		<path id="ID0.6000229325145483" style="&st1;" d="M111,67.6l-86.5,5.2l8.2,14.8l7-10.5l9.2,12l6.8-13.5L66,90.1l6-13.2l11.2,14.2
			l6.5-16.2L101,91.6l9.5-23.5L111,67.6z"/>
	</g>
	<g id="ID0.25396409491077065_00000154403114283947165430000010162406560769635977_">
		<path id="ID0.6000229325145483_00000080171037531191674790000007762608861261887143_" style="&st2;" d="M109.6,127.7l-86.5-5.2
			l8.2-14.8l7,10.5l9.2-12l6.8,13.5l10.2-14.5l6,13.2l11.2-14.2l6.5,16.2l11.2-16.8l9.5,23.5L109.6,127.7z"/>
	</g>
	<path id="ID0.10930385952815413" style="&st3;" d="M76,3.8c-0.6,6.6-8,17.6-5.2,18.8C73.7,24,81.2,11.7,88,9.4
		c6.6-2.3,14.3-1.2,21.5,0c2.3,0.4,7.2,2.5,5.8,4.5c-3.6,5-19.1,7.3-16.5,9.5c3.7,3.1,20.9-1.7,30,2.5c6,2.8,8.3,10.8,11,17
		c0.7,1.5,0.3,4.8-1.5,4.5c-7-1.1-13-7.4-20.2-8c-12.3-0.9-24.4,3.8-36.9,3.5c-14.5-0.3-30.5,1.6-43.4-5.2c-4.6-2.5,2-10.9,5.2-15.2
		c4.2-5.6,8.8-9.1,14-12.5c4.6-3,10.2-4.8,15.7-6.5C74,3,76.1,2.2,76,3.8z"/>
	<path id="ID0.7495024777017534" style="&st4;" d="M113,94.6c0.1,6.2,0.1,12.6-1.8,18.5c-1.2,4.1-4.1,7.8-7.2,10.8
		c-1.6,1.4-3.9,1.1-6,1.5c-2.7,0.5-5.5,0.7-8.2,0.8c-4.5,0.2-9,0.1-13.5,0c-4.3-0.1-8.7-0.4-13-0.8c-14.1-1.1-21.8-2.1-32.8-2.5
		c-2.9-0.1-6.9-1.2-8.8,1c-1.6,2.2,0.9,5.4,1.8,8c1,2.8,1.1,6.5,3.8,7.5c5.5,2.5,12,1.6,18,1.8c10.7,0.3,21.5,0.1,32.2,0
		c10-0.1,20,0.1,30-0.5c3.6-0.2,7-1.2,10.5-2c1.4-0.3,2.7-0.7,4-1.2s3-1,3.5-2.2c1.9-4.6,2.9-9.1,3-13.8c-3-31.9-3-31.5-4.5-39.8
		c-2.7-13.6-3.2-28.2-9.5-40.5c-2.6-5.1-9.9-6.3-15.5-8c-5.1-1.6-10.6-1.3-16-1.8c-2.7-0.2-5.5-0.4-8.2-0.5c-2.8-0.1-5.7-0.2-8.5,0
		c-2.8,0.2-5.5,0.6-8.2,1c-2.7,0.4-5.3,1-8,1.5s-5.3,0.9-8,1.5c-5.5,1.4-8.1,2.2-10.2,3.8c-2.9,2.9-4.6,5.3-6,7.5
		c-1.4,2.3-2.7,4.7-3.5,7.2c-0.7,4.6-1,6-1,8c0,2.7-0.8,5.9,1,8c1.7,2,5.1,2,7.8,2.2c10.3-0.5,12.8-0.8,19-1.2
		c13.7-0.9,27.3-2.6,41-2.5c7,0,16-1.9,20.5,3.5C115.7,77.2,112.9,86.6,113,94.6z"/>
</g>
</svg>
